<?xml version="1.0" encoding="UTF-8" standalone="no"?>
<!DOCTYPE svg PUBLIC "-//W3C//DTD SVG 1.1//EN"
 "http://www.w3.org/Graphics/SVG/1.1/DTD/svg11.dtd">
<!-- Generated by graphviz version 14.1.4 (0)
 -->
<!-- Title: utf8_priv.h Pages: 1 -->
<svg width="195pt" height="142pt"
 viewBox="0.00 0.00 195.00 142.00" xmlns="http://www.w3.org/2000/svg" xmlns:xlink="http://www.w3.org/1999/xlink">
<g id="graph0" class="graph" transform="scale(1 1) rotate(0) translate(4 138.25)">
<title>utf8_priv.h</title>
<!-- Node1 -->
<g id="Node000001" class="node">
<title>Node1</title>
<g id="a_Node000001"><a xlink:title="Including this private header before utf8.h prevents UTF8_PARSER_DESCRIPTOR from being undefined at t...">
<polygon fill="#999999" stroke="#666666" points="67.75,-134.25 0,-134.25 0,-113.5 67.75,-113.5 67.75,-134.25"/>
<text xml:space="preserve" text-anchor="middle" x="33.88" y="-120.75" font-family="Helvetica,sans-Serif" font-size="10.00">utf8_priv.h</text>
</a>
</g>
</g>
<!-- Node2 -->
<g id="Node000002" class="node">
<title>Node2</title>
<g id="a_Node000002"><a xlink:href="../../db/d7c/utf8_8h.html" target="_top" xlink:title=" ">
<polygon fill="white" stroke="#666666" points="56.12,-77.5 11.62,-77.5 11.62,-56.75 56.12,-56.75 56.12,-77.5"/>
<text xml:space="preserve" text-anchor="middle" x="33.88" y="-64" font-family="Helvetica,sans-Serif" font-size="10.00">utf8.h</text>
</a>
</g>
</g>
<!-- Node1&#45;&gt;Node2 -->
<g id="edge1_Node000001_Node000002" class="edge">
<title>Node1&#45;&gt;Node2</title>
<g id="a_edge1_Node000001_Node000002"><a xlink:title=" ">
<path fill="none" stroke="#63b8ff" d="M27.29,-101.92C26.85,-93.63 27.28,-84.5 28.58,-77.83"/>
<polygon fill="#63b8ff" stroke="#63b8ff" points="23.78,-102.04 28.39,-111.58 30.74,-101.25 23.78,-102.04"/>
</a>
</g>
</g>
<!-- Node3 -->
<g id="Node000003" class="node">
<title>Node3</title>
<g id="a_Node000003"><a xlink:href="../../d8/dfc/utf8__impl_8h.html" target="_top" xlink:title=" ">
<polygon fill="white" stroke="#666666" points="145.62,-77.5 74.12,-77.5 74.12,-56.75 145.62,-56.75 145.62,-77.5"/>
<text xml:space="preserve" text-anchor="middle" x="109.88" y="-64" font-family="Helvetica,sans-Serif" font-size="10.00">utf8_impl.h</text>
</a>
</g>
</g>
<!-- Node1&#45;&gt;Node3 -->
<g id="edge3_Node000001_Node000003" class="edge">
<title>Node1&#45;&gt;Node3</title>
<g id="a_edge3_Node000001_Node000003"><a xlink:title=" ">
<path fill="none" stroke="#63b8ff" d="M56.69,-106.44C69.65,-97.11 85.42,-85.75 96.41,-77.83"/>
<polygon fill="#63b8ff" stroke="#63b8ff" points="54.76,-103.52 48.69,-112.2 58.85,-109.2 54.76,-103.52"/>
</a>
</g>
</g>
<!-- Node2&#45;&gt;Node1 -->
<g id="edge2_Node000002_Node000001" class="edge">
<title>Node2&#45;&gt;Node1</title>
<g id="a_edge2_Node000002_Node000001"><a xlink:title=" ">
<path fill="none" stroke="#63b8ff" d="M40.47,-89.27C40.89,-97.47 40.46,-106.47 39.19,-113.09"/>
<polygon fill="#63b8ff" stroke="#63b8ff" points="43.95,-88.88 39.34,-79.33 36.99,-89.66 43.95,-88.88"/>
</a>
</g>
</g>
<!-- Node4 -->
<g id="Node000004" class="node">
<title>Node4</title>
<g id="a_Node000004"><a xlink:href="../../df/d51/utf8_8c.html" target="_top" xlink:title=" ">
<polygon fill="white" stroke="#666666" points="92.75,-20.75 49,-20.75 49,0 92.75,0 92.75,-20.75"/>
<text xml:space="preserve" text-anchor="middle" x="70.88" y="-7.25" font-family="Helvetica,sans-Serif" font-size="10.00">utf8.c</text>
</a>
</g>
</g>
<!-- Node3&#45;&gt;Node4 -->
<g id="edge4_Node000003_Node000004" class="edge">
<title>Node3&#45;&gt;Node4</title>
<g id="a_edge4_Node000003_Node000004"><a xlink:title=" ">
<path fill="none" stroke="#63b8ff" d="M96.38,-47.17C90.11,-38.38 82.93,-28.3 77.79,-21.08"/>
<polygon fill="#63b8ff" stroke="#63b8ff" points="93.37,-48.99 102.02,-55.1 99.07,-44.93 93.37,-48.99"/>
</a>
</g>
</g>
<!-- Node5 -->
<g id="Node000005" class="node">
<title>Node5</title>
<g id="a_Node000005"><a xlink:href="../../d9/d0d/utf8__graph_8c.html" target="_top" xlink:title=" ">
<polygon fill="white" stroke="#666666" points="187.25,-20.75 110.5,-20.75 110.5,0 187.25,0 187.25,-20.75"/>
<text xml:space="preserve" text-anchor="middle" x="148.88" y="-7.25" font-family="Helvetica,sans-Serif" font-size="10.00">utf8_graph.c</text>
</a>
</g>
</g>
<!-- Node3&#45;&gt;Node5 -->
<g id="edge5_Node000003_Node000005" class="edge">
<title>Node3&#45;&gt;Node5</title>
<g id="a_edge5_Node000003_Node000005"><a xlink:title=" ">
<path fill="none" stroke="#63b8ff" d="M123.37,-47.17C129.64,-38.38 136.82,-28.3 141.96,-21.08"/>
<polygon fill="#63b8ff" stroke="#63b8ff" points="120.68,-44.93 117.73,-55.1 126.38,-48.99 120.68,-44.93"/>
</a>
</g>
</g>
</g>
</svg>
