<?xml version="1.0" encoding="UTF-8" standalone="no"?>
<!DOCTYPE svg PUBLIC "-//W3C//DTD SVG 1.1//EN"
 "http://www.w3.org/Graphics/SVG/1.1/DTD/svg11.dtd">
<!-- Generated by graphviz version 14.1.4 (0)
 -->
<!-- Title: utf8_priv.h Pages: 1 -->
<svg width="268pt" height="142pt"
 viewBox="0.00 0.00 268.00 142.00" xmlns="http://www.w3.org/2000/svg" xmlns:xlink="http://www.w3.org/1999/xlink">
<g id="graph0" class="graph" transform="scale(1 1) rotate(0) translate(4 138.25)">
<title>utf8_priv.h</title>
<!-- Node1 -->
<g id="Node000001" class="node">
<title>Node1</title>
<g id="a_Node000001"><a xlink:title="Including this private header before utf8.h prevents UTF8_PARSER_DESCRIPTOR from being undefined at t...">
<polygon fill="#999999" stroke="#666666" points="140,-134.25 72.25,-134.25 72.25,-113.5 140,-113.5 140,-134.25"/>
<text xml:space="preserve" text-anchor="middle" x="106.12" y="-120.75" font-family="Helvetica,sans-Serif" font-size="10.00">utf8_priv.h</text>
</a>
</g>
</g>
<!-- Node2 -->
<g id="Node000002" class="node">
<title>Node2</title>
<g id="a_Node000002"><a xlink:href="../../d4/d15/test-utf8_8c.html" target="_top" xlink:title=" ">
<polygon fill="white" stroke="#666666" points="66.25,-77.5 0,-77.5 0,-56.75 66.25,-56.75 66.25,-77.5"/>
<text xml:space="preserve" text-anchor="middle" x="33.12" y="-64" font-family="Helvetica,sans-Serif" font-size="10.00">test&#45;utf8.c</text>
</a>
</g>
</g>
<!-- Node1&#45;&gt;Node2 -->
<g id="edge1_Node000001_Node000002" class="edge">
<title>Node1&#45;&gt;Node2</title>
<g id="a_edge1_Node000001_Node000002"><a xlink:title=" ">
<path fill="none" stroke="#63b8ff" d="M84.21,-106.44C71.77,-97.11 56.62,-85.75 46.06,-77.83"/>
<polygon fill="#63b8ff" stroke="#63b8ff" points="81.76,-108.98 91.86,-112.18 85.96,-103.38 81.76,-108.98"/>
</a>
</g>
</g>
<!-- Node3 -->
<g id="Node000003" class="node">
<title>Node3</title>
<g id="a_Node000003"><a xlink:href="../../db/d7c/utf8_8h.html" target="_top" xlink:title=" ">
<polygon fill="white" stroke="#666666" points="128.38,-77.5 83.88,-77.5 83.88,-56.75 128.38,-56.75 128.38,-77.5"/>
<text xml:space="preserve" text-anchor="middle" x="106.12" y="-64" font-family="Helvetica,sans-Serif" font-size="10.00">utf8.h</text>
</a>
</g>
</g>
<!-- Node1&#45;&gt;Node3 -->
<g id="edge2_Node000001_Node000003" class="edge">
<title>Node1&#45;&gt;Node3</title>
<g id="a_edge2_Node000001_Node000003"><a xlink:title=" ">
<path fill="none" stroke="#63b8ff" d="M99.54,-101.92C99.1,-93.63 99.53,-84.5 100.83,-77.83"/>
<polygon fill="#63b8ff" stroke="#63b8ff" points="96.03,-102.04 100.64,-111.58 102.99,-101.25 96.03,-102.04"/>
</a>
</g>
</g>
<!-- Node4 -->
<g id="Node000004" class="node">
<title>Node4</title>
<g id="a_Node000004"><a xlink:href="../../d8/dfc/utf8__impl_8h.html" target="_top" xlink:title=" ">
<polygon fill="white" stroke="#666666" points="217.88,-77.5 146.38,-77.5 146.38,-56.75 217.88,-56.75 217.88,-77.5"/>
<text xml:space="preserve" text-anchor="middle" x="182.12" y="-64" font-family="Helvetica,sans-Serif" font-size="10.00">utf8_impl.h</text>
</a>
</g>
</g>
<!-- Node1&#45;&gt;Node4 -->
<g id="edge4_Node000001_Node000004" class="edge">
<title>Node1&#45;&gt;Node4</title>
<g id="a_edge4_Node000001_Node000004"><a xlink:title=" ">
<path fill="none" stroke="#63b8ff" d="M128.94,-106.44C141.9,-97.11 157.67,-85.75 168.66,-77.83"/>
<polygon fill="#63b8ff" stroke="#63b8ff" points="127.01,-103.52 120.94,-112.2 131.1,-109.2 127.01,-103.52"/>
</a>
</g>
</g>
<!-- Node3&#45;&gt;Node1 -->
<g id="edge3_Node000003_Node000001" class="edge">
<title>Node3&#45;&gt;Node1</title>
<g id="a_edge3_Node000003_Node000001"><a xlink:title=" ">
<path fill="none" stroke="#63b8ff" d="M112.72,-89.27C113.14,-97.47 112.71,-106.47 111.44,-113.09"/>
<polygon fill="#63b8ff" stroke="#63b8ff" points="116.2,-88.88 111.59,-79.33 109.24,-89.66 116.2,-88.88"/>
</a>
</g>
</g>
<!-- Node5 -->
<g id="Node000005" class="node">
<title>Node5</title>
<g id="a_Node000005"><a xlink:href="../../df/d51/utf8_8c.html" target="_top" xlink:title=" ">
<polygon fill="white" stroke="#666666" points="165,-20.75 121.25,-20.75 121.25,0 165,0 165,-20.75"/>
<text xml:space="preserve" text-anchor="middle" x="143.12" y="-7.25" font-family="Helvetica,sans-Serif" font-size="10.00">utf8.c</text>
</a>
</g>
</g>
<!-- Node4&#45;&gt;Node5 -->
<g id="edge5_Node000004_Node000005" class="edge">
<title>Node4&#45;&gt;Node5</title>
<g id="a_edge5_Node000004_Node000005"><a xlink:title=" ">
<path fill="none" stroke="#63b8ff" d="M168.63,-47.17C162.36,-38.38 155.18,-28.3 150.04,-21.08"/>
<polygon fill="#63b8ff" stroke="#63b8ff" points="165.62,-48.99 174.27,-55.1 171.32,-44.93 165.62,-48.99"/>
</a>
</g>
</g>
<!-- Node6 -->
<g id="Node000006" class="node">
<title>Node6</title>
<g id="a_Node000006"><a xlink:href="../../d9/d0d/utf8__graph_8c.html" target="_top" xlink:title=" ">
<polygon fill="white" stroke="#666666" points="259.5,-20.75 182.75,-20.75 182.75,0 259.5,0 259.5,-20.75"/>
<text xml:space="preserve" text-anchor="middle" x="221.12" y="-7.25" font-family="Helvetica,sans-Serif" font-size="10.00">utf8_graph.c</text>
</a>
</g>
</g>
<!-- Node4&#45;&gt;Node6 -->
<g id="edge6_Node000004_Node000006" class="edge">
<title>Node4&#45;&gt;Node6</title>
<g id="a_edge6_Node000004_Node000006"><a xlink:title=" ">
<path fill="none" stroke="#63b8ff" d="M195.62,-47.17C201.89,-38.38 209.07,-28.3 214.21,-21.08"/>
<polygon fill="#63b8ff" stroke="#63b8ff" points="192.93,-44.93 189.98,-55.1 198.63,-48.99 192.93,-44.93"/>
</a>
</g>
</g>
</g>
</svg>
