<?xml version="1.0" encoding="UTF-8" standalone="no"?>
<!DOCTYPE svg PUBLIC "-//W3C//DTD SVG 1.1//EN"
 "http://www.w3.org/Graphics/SVG/1.1/DTD/svg11.dtd">
<!-- Generated by graphviz version 14.1.4 (0)
 -->
<!-- Title: utf8.h Pages: 1 -->
<svg width="227pt" height="199pt"
 viewBox="0.00 0.00 227.00 199.00" xmlns="http://www.w3.org/2000/svg" xmlns:xlink="http://www.w3.org/1999/xlink">
<g id="graph0" class="graph" transform="scale(1 1) rotate(0) translate(4 195)">
<title>utf8.h</title>
<!-- Node1 -->
<g id="Node000001" class="node">
<title>Node1</title>
<g id="a_Node000001"><a xlink:title=" ">
<polygon fill="#999999" stroke="#666666" points="207.12,-191 162.62,-191 162.62,-170.25 207.12,-170.25 207.12,-191"/>
<text xml:space="preserve" text-anchor="middle" x="184.88" y="-177.5" font-family="Helvetica,sans-Serif" font-size="10.00">utf8.h</text>
</a>
</g>
</g>
<!-- Node2 -->
<g id="Node000002" class="node">
<title>Node2</title>
<g id="a_Node000002"><a xlink:href="../../d3/db6/utf8__util_8h.html" target="_top" xlink:title=" ">
<polygon fill="white" stroke="#666666" points="132.62,-134.25 67.12,-134.25 67.12,-113.5 132.62,-113.5 132.62,-134.25"/>
<text xml:space="preserve" text-anchor="middle" x="99.88" y="-120.75" font-family="Helvetica,sans-Serif" font-size="10.00">utf8_util.h</text>
</a>
</g>
</g>
<!-- Node1&#45;&gt;Node2 -->
<g id="edge1_Node000001_Node000002" class="edge">
<title>Node1&#45;&gt;Node2</title>
<g id="a_edge1_Node000001_Node000002"><a xlink:title=" ">
<path fill="none" stroke="#63b8ff" d="M169.68,-169.84C157.11,-161.74 139.01,-150.08 124.39,-140.67"/>
<polygon fill="#63b8ff" stroke="#63b8ff" points="126.51,-137.87 116.21,-135.4 122.72,-143.76 126.51,-137.87"/>
</a>
</g>
</g>
<!-- Node6 -->
<g id="Node000006" class="node">
<title>Node6</title>
<g id="a_Node000006"><a xlink:href="../../d3/d30/utf8__priv_8h.html" target="_top" xlink:title="Including this private header before utf8.h prevents UTF8_PARSER_DESCRIPTOR from being undefined at t...">
<polygon fill="white" stroke="#666666" points="218.75,-134.25 151,-134.25 151,-113.5 218.75,-113.5 218.75,-134.25"/>
<text xml:space="preserve" text-anchor="middle" x="184.88" y="-120.75" font-family="Helvetica,sans-Serif" font-size="10.00">utf8_priv.h</text>
</a>
</g>
</g>
<!-- Node1&#45;&gt;Node6 -->
<g id="edge5_Node000001_Node000006" class="edge">
<title>Node1&#45;&gt;Node6</title>
<g id="a_edge5_Node000001_Node000006"><a xlink:title=" ">
<path fill="none" stroke="#63b8ff" d="M179.56,-169.84C178.29,-163.22 177.86,-154.22 178.28,-146.02"/>
<polygon fill="#63b8ff" stroke="#63b8ff" points="181.76,-146.41 179.41,-136.08 174.8,-145.63 181.76,-146.41"/>
</a>
</g>
</g>
<!-- Node3 -->
<g id="Node000003" class="node">
<title>Node3</title>
<g id="a_Node000003"><a xlink:href="../../dd/d13/utf8__compat_8h.html" target="_top" xlink:title=" ">
<polygon fill="white" stroke="#666666" points="143.12,-77.5 56.62,-77.5 56.62,-56.75 143.12,-56.75 143.12,-77.5"/>
<text xml:space="preserve" text-anchor="middle" x="99.88" y="-64" font-family="Helvetica,sans-Serif" font-size="10.00">utf8_compat.h</text>
</a>
</g>
</g>
<!-- Node2&#45;&gt;Node3 -->
<g id="edge2_Node000002_Node000003" class="edge">
<title>Node2&#45;&gt;Node3</title>
<g id="a_edge2_Node000002_Node000003"><a xlink:title=" ">
<path fill="none" stroke="#63b8ff" d="M99.88,-113.09C99.88,-106.47 99.88,-97.47 99.88,-89.27"/>
<polygon fill="#63b8ff" stroke="#63b8ff" points="103.38,-89.34 99.88,-79.34 96.38,-89.34 103.38,-89.34"/>
</a>
</g>
</g>
<!-- Node4 -->
<g id="Node000004" class="node">
<title>Node4</title>
<g id="a_Node000004"><a xlink:href="../../d1/dd3/utf8__compiler_8h.html" target="_top" xlink:title="Compiler identification convenience macros.">
<polygon fill="white" stroke="#666666" points="91.75,-20.75 0,-20.75 0,0 91.75,0 91.75,-20.75"/>
<text xml:space="preserve" text-anchor="middle" x="45.88" y="-7.25" font-family="Helvetica,sans-Serif" font-size="10.00">utf8_compiler.h</text>
</a>
</g>
</g>
<!-- Node3&#45;&gt;Node4 -->
<g id="edge3_Node000003_Node000004" class="edge">
<title>Node3&#45;&gt;Node4</title>
<g id="a_edge3_Node000003_Node000004"><a xlink:title=" ">
<path fill="none" stroke="#63b8ff" d="M90.22,-56.34C82.77,-48.78 72.27,-38.14 63.35,-29.1"/>
<polygon fill="#63b8ff" stroke="#63b8ff" points="66.02,-26.82 56.51,-22.16 61.04,-31.73 66.02,-26.82"/>
</a>
</g>
</g>
<!-- Node5 -->
<g id="Node000005" class="node">
<title>Node5</title>
<g id="a_Node000005"><a xlink:href="../../db/d90/utf8__pragma_8h.html" target="_top" xlink:title="Cross&#45;compiler pragma wrapper macros.">
<polygon fill="white" stroke="#666666" points="197.5,-20.75 110.25,-20.75 110.25,0 197.5,0 197.5,-20.75"/>
<text xml:space="preserve" text-anchor="middle" x="153.88" y="-7.25" font-family="Helvetica,sans-Serif" font-size="10.00">utf8_pragma.h</text>
</a>
</g>
</g>
<!-- Node3&#45;&gt;Node5 -->
<g id="edge4_Node000003_Node000005" class="edge">
<title>Node3&#45;&gt;Node5</title>
<g id="a_edge4_Node000003_Node000005"><a xlink:title=" ">
<path fill="none" stroke="#63b8ff" d="M109.53,-56.34C116.98,-48.78 127.48,-38.14 136.4,-29.1"/>
<polygon fill="#63b8ff" stroke="#63b8ff" points="138.71,-31.73 143.24,-22.16 133.73,-26.82 138.71,-31.73"/>
</a>
</g>
</g>
<!-- Node6&#45;&gt;Node1 -->
<g id="edge6_Node000006_Node000001" class="edge">
<title>Node6&#45;&gt;Node1</title>
<g id="a_edge6_Node000006_Node000001"><a xlink:title=" ">
<path fill="none" stroke="#63b8ff" d="M190.17,-134.58C191.47,-141.25 191.9,-150.38 191.46,-158.67"/>
<polygon fill="#63b8ff" stroke="#63b8ff" points="188.01,-158 190.36,-168.33 194.97,-158.79 188.01,-158"/>
</a>
</g>
</g>
</g>
</svg>
