<?xml version="1.0" encoding="UTF-8" standalone="no"?>
<!DOCTYPE svg PUBLIC "-//W3C//DTD SVG 1.1//EN"
 "http://www.w3.org/Graphics/SVG/1.1/DTD/svg11.dtd">
<!-- Generated by graphviz version 14.1.4 (0)
 -->
<!-- Title: utf8.h Pages: 1 -->
<svg width="258pt" height="199pt"
 viewBox="0.00 0.00 258.00 199.00" xmlns="http://www.w3.org/2000/svg" xmlns:xlink="http://www.w3.org/1999/xlink">
<g id="graph0" class="graph" transform="scale(1 1) rotate(0) translate(4 195)">
<title>utf8.h</title>
<!-- Node1 -->
<g id="Node000001" class="node">
<title>Node1</title>
<g id="a_Node000001"><a xlink:title=" ">
<polygon fill="#999999" stroke="#666666" points="195.12,-191 150.62,-191 150.62,-170.25 195.12,-170.25 195.12,-191"/>
<text xml:space="preserve" text-anchor="middle" x="172.88" y="-177.5" font-family="Helvetica,sans-Serif" font-size="10.00">utf8.h</text>
</a>
</g>
</g>
<!-- Node2 -->
<g id="Node000002" class="node">
<title>Node2</title>
<g id="a_Node000002"><a xlink:href="../../dd/d13/utf8__compat_8h.html" target="_top" xlink:title=" ">
<polygon fill="white" stroke="#666666" points="143.12,-77.5 56.62,-77.5 56.62,-56.75 143.12,-56.75 143.12,-77.5"/>
<text xml:space="preserve" text-anchor="middle" x="99.88" y="-64" font-family="Helvetica,sans-Serif" font-size="10.00">utf8_compat.h</text>
</a>
</g>
</g>
<!-- Node1&#45;&gt;Node2 -->
<g id="edge1_Node000001_Node000002" class="edge">
<title>Node1&#45;&gt;Node2</title>
<g id="a_edge1_Node000001_Node000002"><a xlink:title=" ">
<path fill="none" stroke="#63b8ff" d="M150.5,-174.43C130.41,-168.45 102.12,-156.46 88.88,-134.25 80.59,-120.35 84.55,-102.04 89.9,-88.21"/>
<polygon fill="#63b8ff" stroke="#63b8ff" points="93.03,-89.79 93.87,-79.23 86.62,-86.96 93.03,-89.79"/>
</a>
</g>
</g>
<!-- Node5 -->
<g id="Node000005" class="node">
<title>Node5</title>
<g id="a_Node000005"><a xlink:href="../../d3/db6/utf8__util_8h.html" target="_top" xlink:title=" ">
<polygon fill="white" stroke="#666666" points="163.62,-134.25 98.12,-134.25 98.12,-113.5 163.62,-113.5 163.62,-134.25"/>
<text xml:space="preserve" text-anchor="middle" x="130.88" y="-120.75" font-family="Helvetica,sans-Serif" font-size="10.00">utf8_util.h</text>
</a>
</g>
</g>
<!-- Node1&#45;&gt;Node5 -->
<g id="edge4_Node000001_Node000005" class="edge">
<title>Node1&#45;&gt;Node5</title>
<g id="a_edge4_Node000001_Node000005"><a xlink:title=" ">
<path fill="none" stroke="#63b8ff" d="M165.37,-169.84C159.75,-162.52 151.91,-152.29 145.12,-143.44"/>
<polygon fill="#63b8ff" stroke="#63b8ff" points="148.1,-141.58 139.24,-135.78 142.55,-145.84 148.1,-141.58"/>
</a>
</g>
</g>
<!-- Node6 -->
<g id="Node000006" class="node">
<title>Node6</title>
<g id="a_Node000006"><a xlink:href="../../d3/d30/utf8__priv_8h.html" target="_top" xlink:title="Including this private header before utf8.h prevents UTF8_PARSER_DESCRIPTOR from being undefined at t...">
<polygon fill="white" stroke="#666666" points="249.75,-134.25 182,-134.25 182,-113.5 249.75,-113.5 249.75,-134.25"/>
<text xml:space="preserve" text-anchor="middle" x="215.88" y="-120.75" font-family="Helvetica,sans-Serif" font-size="10.00">utf8_priv.h</text>
</a>
</g>
</g>
<!-- Node1&#45;&gt;Node6 -->
<g id="edge6_Node000001_Node000006" class="edge">
<title>Node1&#45;&gt;Node6</title>
<g id="a_edge6_Node000001_Node000006"><a xlink:title=" ">
<path fill="none" stroke="#63b8ff" d="M175.25,-169.84C179.68,-162.36 187.57,-151.86 195.35,-142.88"/>
<polygon fill="#63b8ff" stroke="#63b8ff" points="197.76,-145.43 201.93,-135.69 192.6,-140.7 197.76,-145.43"/>
</a>
</g>
</g>
<!-- Node3 -->
<g id="Node000003" class="node">
<title>Node3</title>
<g id="a_Node000003"><a xlink:href="../../d1/dd3/utf8__compiler_8h.html" target="_top" xlink:title="Compiler identification convenience macros.">
<polygon fill="white" stroke="#666666" points="91.75,-20.75 0,-20.75 0,0 91.75,0 91.75,-20.75"/>
<text xml:space="preserve" text-anchor="middle" x="45.88" y="-7.25" font-family="Helvetica,sans-Serif" font-size="10.00">utf8_compiler.h</text>
</a>
</g>
</g>
<!-- Node2&#45;&gt;Node3 -->
<g id="edge2_Node000002_Node000003" class="edge">
<title>Node2&#45;&gt;Node3</title>
<g id="a_edge2_Node000002_Node000003"><a xlink:title=" ">
<path fill="none" stroke="#63b8ff" d="M90.22,-56.34C82.77,-48.78 72.27,-38.14 63.35,-29.1"/>
<polygon fill="#63b8ff" stroke="#63b8ff" points="66.02,-26.82 56.51,-22.16 61.04,-31.73 66.02,-26.82"/>
</a>
</g>
</g>
<!-- Node4 -->
<g id="Node000004" class="node">
<title>Node4</title>
<g id="a_Node000004"><a xlink:href="../../db/d90/utf8__pragma_8h.html" target="_top" xlink:title="Cross&#45;compiler pragma wrapper macros.">
<polygon fill="white" stroke="#666666" points="197.5,-20.75 110.25,-20.75 110.25,0 197.5,0 197.5,-20.75"/>
<text xml:space="preserve" text-anchor="middle" x="153.88" y="-7.25" font-family="Helvetica,sans-Serif" font-size="10.00">utf8_pragma.h</text>
</a>
</g>
</g>
<!-- Node2&#45;&gt;Node4 -->
<g id="edge3_Node000002_Node000004" class="edge">
<title>Node2&#45;&gt;Node4</title>
<g id="a_edge3_Node000002_Node000004"><a xlink:title=" ">
<path fill="none" stroke="#63b8ff" d="M109.53,-56.34C116.98,-48.78 127.48,-38.14 136.4,-29.1"/>
<polygon fill="#63b8ff" stroke="#63b8ff" points="138.71,-31.73 143.24,-22.16 133.73,-26.82 138.71,-31.73"/>
</a>
</g>
</g>
<!-- Node5&#45;&gt;Node2 -->
<g id="edge5_Node000005_Node000002" class="edge">
<title>Node5&#45;&gt;Node2</title>
<g id="a_edge5_Node000005_Node000002"><a xlink:title=" ">
<path fill="none" stroke="#63b8ff" d="M125.33,-113.09C121.37,-106.08 115.89,-96.41 111.03,-87.83"/>
<polygon fill="#63b8ff" stroke="#63b8ff" points="114.09,-86.12 106.11,-79.15 108,-89.57 114.09,-86.12"/>
</a>
</g>
</g>
<!-- Node6&#45;&gt;Node1 -->
<g id="edge7_Node000006_Node000001" class="edge">
<title>Node6&#45;&gt;Node1</title>
<g id="a_edge7_Node000006_Node000001"><a xlink:title=" ">
<path fill="none" stroke="#63b8ff" d="M213.55,-134.58C209.15,-142.03 201.26,-152.53 193.49,-161.52"/>
<polygon fill="#63b8ff" stroke="#63b8ff" points="191.07,-158.98 186.9,-168.72 196.23,-163.71 191.07,-158.98"/>
</a>
</g>
</g>
</g>
</svg>
