<?xml version="1.0" encoding="UTF-8" standalone="no"?>
<!DOCTYPE svg PUBLIC "-//W3C//DTD SVG 1.1//EN"
 "http://www.w3.org/Graphics/SVG/1.1/DTD/svg11.dtd">
<!-- Generated by graphviz version 14.1.4 (0)
 -->
<!-- Title: utf8_compiler.h Pages: 1 -->
<svg width="206pt" height="369pt"
 viewBox="0.00 0.00 206.00 369.00" xmlns="http://www.w3.org/2000/svg" xmlns:xlink="http://www.w3.org/1999/xlink">
<g id="graph0" class="graph" transform="scale(1 1) rotate(0) translate(4 365.25)">
<title>utf8_compiler.h</title>
<!-- Node1 -->
<g id="Node000001" class="node">
<title>Node1</title>
<g id="a_Node000001"><a xlink:title="Compiler identification convenience macros.">
<polygon fill="#999999" stroke="#666666" points="134,-361.25 42.25,-361.25 42.25,-340.5 134,-340.5 134,-361.25"/>
<text xml:space="preserve" text-anchor="middle" x="88.12" y="-347.75" font-family="Helvetica,sans-Serif" font-size="10.00">utf8_compiler.h</text>
</a>
</g>
</g>
<!-- Node2 -->
<g id="Node000002" class="node">
<title>Node2</title>
<g id="a_Node000002"><a xlink:href="../../dd/d13/utf8__compat_8h.html" target="_top" xlink:title=" ">
<polygon fill="white" stroke="#666666" points="131.38,-304.5 44.88,-304.5 44.88,-283.75 131.38,-283.75 131.38,-304.5"/>
<text xml:space="preserve" text-anchor="middle" x="88.12" y="-291" font-family="Helvetica,sans-Serif" font-size="10.00">utf8_compat.h</text>
</a>
</g>
</g>
<!-- Node1&#45;&gt;Node2 -->
<g id="edge1_Node000001_Node000002" class="edge">
<title>Node1&#45;&gt;Node2</title>
<g id="a_edge1_Node000001_Node000002"><a xlink:title=" ">
<path fill="none" stroke="#63b8ff" d="M88.12,-328.63C88.12,-320.41 88.12,-311.43 88.12,-304.83"/>
<polygon fill="#63b8ff" stroke="#63b8ff" points="84.63,-328.57 88.13,-338.57 91.63,-328.57 84.63,-328.57"/>
</a>
</g>
</g>
<!-- Node3 -->
<g id="Node000003" class="node">
<title>Node3</title>
<g id="a_Node000003"><a xlink:href="../../db/d7c/utf8_8h.html" target="_top" xlink:title=" ">
<polygon fill="white" stroke="#666666" points="80.38,-191 35.88,-191 35.88,-170.25 80.38,-170.25 80.38,-191"/>
<text xml:space="preserve" text-anchor="middle" x="58.12" y="-177.5" font-family="Helvetica,sans-Serif" font-size="10.00">utf8.h</text>
</a>
</g>
</g>
<!-- Node2&#45;&gt;Node3 -->
<g id="edge2_Node000002_Node000003" class="edge">
<title>Node2&#45;&gt;Node3</title>
<g id="a_edge2_Node000002_Node000003"><a xlink:title=" ">
<path fill="none" stroke="#63b8ff" d="M82.59,-272.55C76.1,-248.45 65.63,-209.5 60.76,-191.43"/>
<polygon fill="#63b8ff" stroke="#63b8ff" points="79.2,-273.41 85.17,-282.16 85.96,-271.59 79.2,-273.41"/>
</a>
</g>
</g>
<!-- Node9 -->
<g id="Node000009" class="node">
<title>Node9</title>
<g id="a_Node000009"><a xlink:href="../../d3/db6/utf8__util_8h.html" target="_top" xlink:title=" ">
<polygon fill="white" stroke="#666666" points="151.88,-247.75 86.38,-247.75 86.38,-227 151.88,-227 151.88,-247.75"/>
<text xml:space="preserve" text-anchor="middle" x="119.12" y="-234.25" font-family="Helvetica,sans-Serif" font-size="10.00">utf8_util.h</text>
</a>
</g>
</g>
<!-- Node2&#45;&gt;Node9 -->
<g id="edge9_Node000002_Node000009" class="edge">
<title>Node2&#45;&gt;Node9</title>
<g id="a_edge9_Node000002_Node000009"><a xlink:title=" ">
<path fill="none" stroke="#63b8ff" d="M99.34,-273.32C104.2,-264.73 109.68,-255.06 113.63,-248.08"/>
<polygon fill="#63b8ff" stroke="#63b8ff" points="96.29,-271.59 94.41,-282.02 102.39,-275.04 96.29,-271.59"/>
</a>
</g>
</g>
<!-- Node4 -->
<g id="Node000004" class="node">
<title>Node4</title>
<g id="a_Node000004"><a xlink:href="../../d3/d30/utf8__priv_8h.html" target="_top" xlink:title="Including this private header before utf8.h prevents UTF8_PARSER_DESCRIPTOR from being undefined at t...">
<polygon fill="white" stroke="#666666" points="92,-134.25 24.25,-134.25 24.25,-113.5 92,-113.5 92,-134.25"/>
<text xml:space="preserve" text-anchor="middle" x="58.12" y="-120.75" font-family="Helvetica,sans-Serif" font-size="10.00">utf8_priv.h</text>
</a>
</g>
</g>
<!-- Node3&#45;&gt;Node4 -->
<g id="edge3_Node000003_Node000004" class="edge">
<title>Node3&#45;&gt;Node4</title>
<g id="a_edge3_Node000003_Node000004"><a xlink:title=" ">
<path fill="none" stroke="#63b8ff" d="M51.54,-158.67C51.1,-150.38 51.53,-141.25 52.83,-134.58"/>
<polygon fill="#63b8ff" stroke="#63b8ff" points="48.03,-158.79 52.64,-168.33 54.99,-158 48.03,-158.79"/>
</a>
</g>
</g>
<!-- Node4&#45;&gt;Node3 -->
<g id="edge5_Node000004_Node000003" class="edge">
<title>Node4&#45;&gt;Node3</title>
<g id="a_edge5_Node000004_Node000003"><a xlink:title=" ">
<path fill="none" stroke="#63b8ff" d="M64.72,-146.02C65.14,-154.22 64.71,-163.22 63.44,-169.84"/>
<polygon fill="#63b8ff" stroke="#63b8ff" points="68.2,-145.63 63.59,-136.08 61.24,-146.41 68.2,-145.63"/>
</a>
</g>
</g>
<!-- Node5 -->
<g id="Node000005" class="node">
<title>Node5</title>
<g id="a_Node000005"><a xlink:href="../../d4/d15/test-utf8_8c.html" target="_top" xlink:title=" ">
<polygon fill="white" stroke="#666666" points="66.25,-77.5 0,-77.5 0,-56.75 66.25,-56.75 66.25,-77.5"/>
<text xml:space="preserve" text-anchor="middle" x="33.12" y="-64" font-family="Helvetica,sans-Serif" font-size="10.00">test&#45;utf8.c</text>
</a>
</g>
</g>
<!-- Node4&#45;&gt;Node5 -->
<g id="edge4_Node000004_Node000005" class="edge">
<title>Node4&#45;&gt;Node5</title>
<g id="a_edge4_Node000004_Node000005"><a xlink:title=" ">
<path fill="none" stroke="#63b8ff" d="M48.95,-102.78C45.06,-94.27 40.71,-84.74 37.56,-77.83"/>
<polygon fill="#63b8ff" stroke="#63b8ff" points="45.69,-104.07 53.03,-111.71 52.06,-101.16 45.69,-104.07"/>
</a>
</g>
</g>
<!-- Node6 -->
<g id="Node000006" class="node">
<title>Node6</title>
<g id="a_Node000006"><a xlink:href="../../d8/dfc/utf8__impl_8h.html" target="_top" xlink:title=" ">
<polygon fill="white" stroke="#666666" points="155.88,-77.5 84.38,-77.5 84.38,-56.75 155.88,-56.75 155.88,-77.5"/>
<text xml:space="preserve" text-anchor="middle" x="120.12" y="-64" font-family="Helvetica,sans-Serif" font-size="10.00">utf8_impl.h</text>
</a>
</g>
</g>
<!-- Node4&#45;&gt;Node6 -->
<g id="edge6_Node000004_Node000006" class="edge">
<title>Node4&#45;&gt;Node6</title>
<g id="a_edge6_Node000004_Node000006"><a xlink:title=" ">
<path fill="none" stroke="#63b8ff" d="M77.68,-105.61C88.06,-96.44 100.44,-85.51 109.14,-77.83"/>
<polygon fill="#63b8ff" stroke="#63b8ff" points="75.52,-102.84 70.34,-112.08 80.16,-108.09 75.52,-102.84"/>
</a>
</g>
</g>
<!-- Node7 -->
<g id="Node000007" class="node">
<title>Node7</title>
<g id="a_Node000007"><a xlink:href="../../df/d51/utf8_8c.html" target="_top" xlink:title=" ">
<polygon fill="white" stroke="#666666" points="103,-20.75 59.25,-20.75 59.25,0 103,0 103,-20.75"/>
<text xml:space="preserve" text-anchor="middle" x="81.12" y="-7.25" font-family="Helvetica,sans-Serif" font-size="10.00">utf8.c</text>
</a>
</g>
</g>
<!-- Node6&#45;&gt;Node7 -->
<g id="edge7_Node000006_Node000007" class="edge">
<title>Node6&#45;&gt;Node7</title>
<g id="a_edge7_Node000006_Node000007"><a xlink:title=" ">
<path fill="none" stroke="#63b8ff" d="M106.63,-47.17C100.36,-38.38 93.18,-28.3 88.04,-21.08"/>
<polygon fill="#63b8ff" stroke="#63b8ff" points="103.62,-48.99 112.27,-55.1 109.32,-44.93 103.62,-48.99"/>
</a>
</g>
</g>
<!-- Node8 -->
<g id="Node000008" class="node">
<title>Node8</title>
<g id="a_Node000008"><a xlink:href="../../d9/d0d/utf8__graph_8c.html" target="_top" xlink:title=" ">
<polygon fill="white" stroke="#666666" points="197.5,-20.75 120.75,-20.75 120.75,0 197.5,0 197.5,-20.75"/>
<text xml:space="preserve" text-anchor="middle" x="159.12" y="-7.25" font-family="Helvetica,sans-Serif" font-size="10.00">utf8_graph.c</text>
</a>
</g>
</g>
<!-- Node6&#45;&gt;Node8 -->
<g id="edge8_Node000006_Node000008" class="edge">
<title>Node6&#45;&gt;Node8</title>
<g id="a_edge8_Node000006_Node000008"><a xlink:title=" ">
<path fill="none" stroke="#63b8ff" d="M133.62,-47.17C139.89,-38.38 147.07,-28.3 152.21,-21.08"/>
<polygon fill="#63b8ff" stroke="#63b8ff" points="130.93,-44.93 127.98,-55.1 136.63,-48.99 130.93,-44.93"/>
</a>
</g>
</g>
<!-- Node9&#45;&gt;Node3 -->
<g id="edge10_Node000009_Node000003" class="edge">
<title>Node9&#45;&gt;Node3</title>
<g id="a_edge10_Node000009_Node000003"><a xlink:title=" ">
<path fill="none" stroke="#63b8ff" d="M99.89,-219.11C89.67,-209.94 77.5,-199.01 68.94,-191.33"/>
<polygon fill="#63b8ff" stroke="#63b8ff" points="97.31,-221.5 107.09,-225.58 101.99,-216.29 97.31,-221.5"/>
</a>
</g>
</g>
<!-- Node9&#45;&gt;Node6 -->
<g id="edge11_Node000009_Node000006" class="edge">
<title>Node9&#45;&gt;Node6</title>
<g id="a_edge11_Node000009_Node000006"><a xlink:title=" ">
<path fill="none" stroke="#63b8ff" d="M119.25,-215.66C119.47,-179.15 119.91,-104.71 120.07,-77.97"/>
<polygon fill="#63b8ff" stroke="#63b8ff" points="115.75,-215.31 119.19,-225.33 122.75,-215.35 115.75,-215.31"/>
</a>
</g>
</g>
</g>
</svg>
