<?xml version="1.0" encoding="UTF-8" standalone="no"?>
<!DOCTYPE svg PUBLIC "-//W3C//DTD SVG 1.1//EN"
 "http://www.w3.org/Graphics/SVG/1.1/DTD/svg11.dtd">
<!-- Generated by graphviz version 14.1.4 (0)
 -->
<!-- Title: utf8_compiler.h Pages: 1 -->
<svg width="150pt" height="369pt"
 viewBox="0.00 0.00 150.00 369.00" xmlns="http://www.w3.org/2000/svg" xmlns:xlink="http://www.w3.org/1999/xlink">
<g id="graph0" class="graph" transform="scale(1 1) rotate(0) translate(4 365.25)">
<title>utf8_compiler.h</title>
<!-- Node1 -->
<g id="Node000001" class="node">
<title>Node1</title>
<g id="a_Node000001"><a xlink:title="Compiler identification convenience macros.">
<polygon fill="#999999" stroke="#666666" points="110.75,-361.25 19,-361.25 19,-340.5 110.75,-340.5 110.75,-361.25"/>
<text xml:space="preserve" text-anchor="middle" x="64.88" y="-347.75" font-family="Helvetica,sans-Serif" font-size="10.00">utf8_compiler.h</text>
</a>
</g>
</g>
<!-- Node2 -->
<g id="Node000002" class="node">
<title>Node2</title>
<g id="a_Node000002"><a xlink:href="../../dd/d13/utf8__compat_8h.html" target="_top" xlink:title=" ">
<polygon fill="white" stroke="#666666" points="108.12,-304.5 21.62,-304.5 21.62,-283.75 108.12,-283.75 108.12,-304.5"/>
<text xml:space="preserve" text-anchor="middle" x="64.88" y="-291" font-family="Helvetica,sans-Serif" font-size="10.00">utf8_compat.h</text>
</a>
</g>
</g>
<!-- Node1&#45;&gt;Node2 -->
<g id="edge1_Node000001_Node000002" class="edge">
<title>Node1&#45;&gt;Node2</title>
<g id="a_edge1_Node000001_Node000002"><a xlink:title=" ">
<path fill="none" stroke="#63b8ff" d="M64.88,-328.63C64.88,-320.41 64.88,-311.43 64.88,-304.83"/>
<polygon fill="#63b8ff" stroke="#63b8ff" points="61.38,-328.57 64.88,-338.57 68.38,-328.57 61.38,-328.57"/>
</a>
</g>
</g>
<!-- Node3 -->
<g id="Node000003" class="node">
<title>Node3</title>
<g id="a_Node000003"><a xlink:href="../../d3/db6/utf8__util_8h.html" target="_top" xlink:title=" ">
<polygon fill="white" stroke="#666666" points="97.62,-247.75 32.12,-247.75 32.12,-227 97.62,-227 97.62,-247.75"/>
<text xml:space="preserve" text-anchor="middle" x="64.88" y="-234.25" font-family="Helvetica,sans-Serif" font-size="10.00">utf8_util.h</text>
</a>
</g>
</g>
<!-- Node2&#45;&gt;Node3 -->
<g id="edge2_Node000002_Node000003" class="edge">
<title>Node2&#45;&gt;Node3</title>
<g id="a_edge2_Node000002_Node000003"><a xlink:title=" ">
<path fill="none" stroke="#63b8ff" d="M64.88,-271.88C64.88,-263.66 64.88,-254.68 64.88,-248.08"/>
<polygon fill="#63b8ff" stroke="#63b8ff" points="61.38,-271.82 64.88,-281.82 68.38,-271.82 61.38,-271.82"/>
</a>
</g>
</g>
<!-- Node4 -->
<g id="Node000004" class="node">
<title>Node4</title>
<g id="a_Node000004"><a xlink:href="../../db/d7c/utf8_8h.html" target="_top" xlink:title=" ">
<polygon fill="white" stroke="#666666" points="56.12,-191 11.62,-191 11.62,-170.25 56.12,-170.25 56.12,-191"/>
<text xml:space="preserve" text-anchor="middle" x="33.88" y="-177.5" font-family="Helvetica,sans-Serif" font-size="10.00">utf8.h</text>
</a>
</g>
</g>
<!-- Node3&#45;&gt;Node4 -->
<g id="edge3_Node000003_Node000004" class="edge">
<title>Node3&#45;&gt;Node4</title>
<g id="a_edge3_Node000003_Node000004"><a xlink:title=" ">
<path fill="none" stroke="#63b8ff" d="M53.66,-216.57C48.8,-207.98 43.32,-198.31 39.37,-191.33"/>
<polygon fill="#63b8ff" stroke="#63b8ff" points="50.61,-218.29 58.59,-225.27 56.71,-214.84 50.61,-218.29"/>
</a>
</g>
</g>
<!-- Node6 -->
<g id="Node000006" class="node">
<title>Node6</title>
<g id="a_Node000006"><a xlink:href="../../d8/dfc/utf8__impl_8h.html" target="_top" xlink:title=" ">
<polygon fill="white" stroke="#666666" points="100.62,-77.5 29.12,-77.5 29.12,-56.75 100.62,-56.75 100.62,-77.5"/>
<text xml:space="preserve" text-anchor="middle" x="64.88" y="-64" font-family="Helvetica,sans-Serif" font-size="10.00">utf8_impl.h</text>
</a>
</g>
</g>
<!-- Node3&#45;&gt;Node6 -->
<g id="edge9_Node000003_Node000006" class="edge">
<title>Node3&#45;&gt;Node6</title>
<g id="a_edge9_Node000003_Node000006"><a xlink:title=" ">
<path fill="none" stroke="#63b8ff" d="M69.74,-215.72C74.85,-191.27 81.53,-149.34 76.88,-113.5 75.24,-100.89 71.14,-86.8 68.19,-77.72"/>
<polygon fill="#63b8ff" stroke="#63b8ff" points="66.37,-214.79 67.61,-225.31 73.2,-216.31 66.37,-214.79"/>
</a>
</g>
</g>
<!-- Node5 -->
<g id="Node000005" class="node">
<title>Node5</title>
<g id="a_Node000005"><a xlink:href="../../d3/d30/utf8__priv_8h.html" target="_top" xlink:title="Including this private header before utf8.h prevents UTF8_PARSER_DESCRIPTOR from being undefined at t...">
<polygon fill="white" stroke="#666666" points="67.75,-134.25 0,-134.25 0,-113.5 67.75,-113.5 67.75,-134.25"/>
<text xml:space="preserve" text-anchor="middle" x="33.88" y="-120.75" font-family="Helvetica,sans-Serif" font-size="10.00">utf8_priv.h</text>
</a>
</g>
</g>
<!-- Node4&#45;&gt;Node5 -->
<g id="edge4_Node000004_Node000005" class="edge">
<title>Node4&#45;&gt;Node5</title>
<g id="a_edge4_Node000004_Node000005"><a xlink:title=" ">
<path fill="none" stroke="#63b8ff" d="M27.29,-158.67C26.85,-150.38 27.28,-141.25 28.58,-134.58"/>
<polygon fill="#63b8ff" stroke="#63b8ff" points="23.78,-158.79 28.39,-168.33 30.74,-158 23.78,-158.79"/>
</a>
</g>
</g>
<!-- Node5&#45;&gt;Node4 -->
<g id="edge5_Node000005_Node000004" class="edge">
<title>Node5&#45;&gt;Node4</title>
<g id="a_edge5_Node000005_Node000004"><a xlink:title=" ">
<path fill="none" stroke="#63b8ff" d="M40.47,-146.02C40.89,-154.22 40.46,-163.22 39.19,-169.84"/>
<polygon fill="#63b8ff" stroke="#63b8ff" points="43.95,-145.63 39.34,-136.08 36.99,-146.41 43.95,-145.63"/>
</a>
</g>
</g>
<!-- Node5&#45;&gt;Node6 -->
<g id="edge6_Node000005_Node000006" class="edge">
<title>Node5&#45;&gt;Node6</title>
<g id="a_edge6_Node000005_Node000006"><a xlink:title=" ">
<path fill="none" stroke="#63b8ff" d="M45.09,-103.07C49.95,-94.48 55.43,-84.81 59.38,-77.83"/>
<polygon fill="#63b8ff" stroke="#63b8ff" points="42.04,-101.34 40.16,-111.77 48.14,-104.79 42.04,-101.34"/>
</a>
</g>
</g>
<!-- Node7 -->
<g id="Node000007" class="node">
<title>Node7</title>
<g id="a_Node000007"><a xlink:href="../../df/d51/utf8_8c.html" target="_top" xlink:title=" ">
<polygon fill="white" stroke="#666666" points="47.75,-20.75 4,-20.75 4,0 47.75,0 47.75,-20.75"/>
<text xml:space="preserve" text-anchor="middle" x="25.88" y="-7.25" font-family="Helvetica,sans-Serif" font-size="10.00">utf8.c</text>
</a>
</g>
</g>
<!-- Node6&#45;&gt;Node7 -->
<g id="edge7_Node000006_Node000007" class="edge">
<title>Node6&#45;&gt;Node7</title>
<g id="a_edge7_Node000006_Node000007"><a xlink:title=" ">
<path fill="none" stroke="#63b8ff" d="M51.38,-47.17C45.11,-38.38 37.93,-28.3 32.79,-21.08"/>
<polygon fill="#63b8ff" stroke="#63b8ff" points="48.37,-48.99 57.02,-55.1 54.07,-44.93 48.37,-48.99"/>
</a>
</g>
</g>
<!-- Node8 -->
<g id="Node000008" class="node">
<title>Node8</title>
<g id="a_Node000008"><a xlink:href="../../d9/d0d/utf8__graph_8c.html" target="_top" xlink:title=" ">
<polygon fill="white" stroke="#666666" points="142.25,-20.75 65.5,-20.75 65.5,0 142.25,0 142.25,-20.75"/>
<text xml:space="preserve" text-anchor="middle" x="103.88" y="-7.25" font-family="Helvetica,sans-Serif" font-size="10.00">utf8_graph.c</text>
</a>
</g>
</g>
<!-- Node6&#45;&gt;Node8 -->
<g id="edge8_Node000006_Node000008" class="edge">
<title>Node6&#45;&gt;Node8</title>
<g id="a_edge8_Node000006_Node000008"><a xlink:title=" ">
<path fill="none" stroke="#63b8ff" d="M78.37,-47.17C84.64,-38.38 91.82,-28.3 96.96,-21.08"/>
<polygon fill="#63b8ff" stroke="#63b8ff" points="75.68,-44.93 72.73,-55.1 81.38,-48.99 75.68,-44.93"/>
</a>
</g>
</g>
</g>
</svg>
