<?xml version="1.0" encoding="UTF-8" standalone="no"?>
<!DOCTYPE svg PUBLIC "-//W3C//DTD SVG 1.1//EN"
 "http://www.w3.org/Graphics/SVG/1.1/DTD/svg11.dtd">
<!-- Generated by graphviz version 14.1.4 (0)
 -->
<!-- Title: utf8.c Pages: 1 -->
<svg width="206pt" height="369pt"
 viewBox="0.00 0.00 206.00 369.00" xmlns="http://www.w3.org/2000/svg" xmlns:xlink="http://www.w3.org/1999/xlink">
<g id="graph0" class="graph" transform="scale(1 1) rotate(0) translate(4 365.25)">
<title>utf8.c</title>
<!-- Node1 -->
<g id="Node000001" class="node">
<title>Node1</title>
<g id="a_Node000001"><a xlink:title=" ">
<polygon fill="#999999" stroke="#666666" points="121.75,-361.25 78,-361.25 78,-340.5 121.75,-340.5 121.75,-361.25"/>
<text xml:space="preserve" text-anchor="middle" x="99.88" y="-347.75" font-family="Helvetica,sans-Serif" font-size="10.00">utf8.c</text>
</a>
</g>
</g>
<!-- Node2 -->
<g id="Node000002" class="node">
<title>Node2</title>
<g id="a_Node000002"><a xlink:href="../../d8/dfc/utf8__impl_8h.html" target="_top" xlink:title=" ">
<polygon fill="white" stroke="#666666" points="135.62,-304.5 64.12,-304.5 64.12,-283.75 135.62,-283.75 135.62,-304.5"/>
<text xml:space="preserve" text-anchor="middle" x="99.88" y="-291" font-family="Helvetica,sans-Serif" font-size="10.00">utf8_impl.h</text>
</a>
</g>
</g>
<!-- Node1&#45;&gt;Node2 -->
<g id="edge1_Node000001_Node000002" class="edge">
<title>Node1&#45;&gt;Node2</title>
<g id="a_edge1_Node000001_Node000002"><a xlink:title=" ">
<path fill="none" stroke="#63b8ff" d="M99.88,-340.09C99.88,-333.47 99.88,-324.47 99.88,-316.27"/>
<polygon fill="#63b8ff" stroke="#63b8ff" points="103.38,-316.34 99.88,-306.34 96.38,-316.34 103.38,-316.34"/>
</a>
</g>
</g>
<!-- Node3 -->
<g id="Node000003" class="node">
<title>Node3</title>
<g id="a_Node000003"><a xlink:href="../../d3/d30/utf8__priv_8h.html" target="_top" xlink:title="Including this private header before utf8.h prevents UTF8_PARSER_DESCRIPTOR from being undefined at t...">
<polygon fill="white" stroke="#666666" points="102.75,-247.75 35,-247.75 35,-227 102.75,-227 102.75,-247.75"/>
<text xml:space="preserve" text-anchor="middle" x="68.88" y="-234.25" font-family="Helvetica,sans-Serif" font-size="10.00">utf8_priv.h</text>
</a>
</g>
</g>
<!-- Node2&#45;&gt;Node3 -->
<g id="edge2_Node000002_Node000003" class="edge">
<title>Node2&#45;&gt;Node3</title>
<g id="a_edge2_Node000002_Node000003"><a xlink:title=" ">
<path fill="none" stroke="#63b8ff" d="M94.33,-283.34C90.37,-276.33 84.89,-266.66 80.03,-258.08"/>
<polygon fill="#63b8ff" stroke="#63b8ff" points="83.09,-256.37 75.11,-249.4 77,-259.82 83.09,-256.37"/>
</a>
</g>
</g>
<!-- Node5 -->
<g id="Node000005" class="node">
<title>Node5</title>
<g id="a_Node000005"><a xlink:href="../../d3/db6/utf8__util_8h.html" target="_top" xlink:title=" ">
<polygon fill="white" stroke="#666666" points="132.62,-134.25 67.12,-134.25 67.12,-113.5 132.62,-113.5 132.62,-134.25"/>
<text xml:space="preserve" text-anchor="middle" x="99.88" y="-120.75" font-family="Helvetica,sans-Serif" font-size="10.00">utf8_util.h</text>
</a>
</g>
</g>
<!-- Node2&#45;&gt;Node5 -->
<g id="edge9_Node000002_Node000005" class="edge">
<title>Node2&#45;&gt;Node5</title>
<g id="a_edge9_Node000002_Node000005"><a xlink:title=" ">
<path fill="none" stroke="#63b8ff" d="M103.19,-283.53C106.14,-274.45 110.24,-260.36 111.88,-247.75 116.53,-211.91 109.85,-169.98 104.74,-145.53"/>
<polygon fill="#63b8ff" stroke="#63b8ff" points="108.2,-144.94 102.61,-135.94 101.37,-146.46 108.2,-144.94"/>
</a>
</g>
</g>
<!-- Node4 -->
<g id="Node000004" class="node">
<title>Node4</title>
<g id="a_Node000004"><a xlink:href="../../db/d7c/utf8_8h.html" target="_top" xlink:title=" ">
<polygon fill="white" stroke="#666666" points="91.12,-191 46.62,-191 46.62,-170.25 91.12,-170.25 91.12,-191"/>
<text xml:space="preserve" text-anchor="middle" x="68.88" y="-177.5" font-family="Helvetica,sans-Serif" font-size="10.00">utf8.h</text>
</a>
</g>
</g>
<!-- Node3&#45;&gt;Node4 -->
<g id="edge3_Node000003_Node000004" class="edge">
<title>Node3&#45;&gt;Node4</title>
<g id="a_edge3_Node000003_Node000004"><a xlink:title=" ">
<path fill="none" stroke="#63b8ff" d="M63.56,-226.59C62.29,-219.97 61.86,-210.97 62.28,-202.77"/>
<polygon fill="#63b8ff" stroke="#63b8ff" points="65.76,-203.16 63.41,-192.83 58.8,-202.38 65.76,-203.16"/>
</a>
</g>
</g>
<!-- Node4&#45;&gt;Node3 -->
<g id="edge8_Node000004_Node000003" class="edge">
<title>Node4&#45;&gt;Node3</title>
<g id="a_edge8_Node000004_Node000003"><a xlink:title=" ">
<path fill="none" stroke="#63b8ff" d="M74.17,-191.33C75.47,-198 75.9,-207.13 75.46,-215.42"/>
<polygon fill="#63b8ff" stroke="#63b8ff" points="72.01,-214.75 74.36,-225.08 78.97,-215.54 72.01,-214.75"/>
</a>
</g>
</g>
<!-- Node4&#45;&gt;Node5 -->
<g id="edge4_Node000004_Node000005" class="edge">
<title>Node4&#45;&gt;Node5</title>
<g id="a_edge4_Node000004_Node000005"><a xlink:title=" ">
<path fill="none" stroke="#63b8ff" d="M74.42,-169.84C78.38,-162.83 83.86,-153.16 88.72,-144.58"/>
<polygon fill="#63b8ff" stroke="#63b8ff" points="91.75,-146.32 93.64,-135.9 85.66,-142.87 91.75,-146.32"/>
</a>
</g>
</g>
<!-- Node6 -->
<g id="Node000006" class="node">
<title>Node6</title>
<g id="a_Node000006"><a xlink:href="../../dd/d13/utf8__compat_8h.html" target="_top" xlink:title=" ">
<polygon fill="white" stroke="#666666" points="143.12,-77.5 56.62,-77.5 56.62,-56.75 143.12,-56.75 143.12,-77.5"/>
<text xml:space="preserve" text-anchor="middle" x="99.88" y="-64" font-family="Helvetica,sans-Serif" font-size="10.00">utf8_compat.h</text>
</a>
</g>
</g>
<!-- Node5&#45;&gt;Node6 -->
<g id="edge5_Node000005_Node000006" class="edge">
<title>Node5&#45;&gt;Node6</title>
<g id="a_edge5_Node000005_Node000006"><a xlink:title=" ">
<path fill="none" stroke="#63b8ff" d="M99.88,-113.09C99.88,-106.47 99.88,-97.47 99.88,-89.27"/>
<polygon fill="#63b8ff" stroke="#63b8ff" points="103.38,-89.34 99.88,-79.34 96.38,-89.34 103.38,-89.34"/>
</a>
</g>
</g>
<!-- Node7 -->
<g id="Node000007" class="node">
<title>Node7</title>
<g id="a_Node000007"><a xlink:href="../../d1/dd3/utf8__compiler_8h.html" target="_top" xlink:title="Compiler identification convenience macros.">
<polygon fill="white" stroke="#666666" points="91.75,-20.75 0,-20.75 0,0 91.75,0 91.75,-20.75"/>
<text xml:space="preserve" text-anchor="middle" x="45.88" y="-7.25" font-family="Helvetica,sans-Serif" font-size="10.00">utf8_compiler.h</text>
</a>
</g>
</g>
<!-- Node6&#45;&gt;Node7 -->
<g id="edge6_Node000006_Node000007" class="edge">
<title>Node6&#45;&gt;Node7</title>
<g id="a_edge6_Node000006_Node000007"><a xlink:title=" ">
<path fill="none" stroke="#63b8ff" d="M90.22,-56.34C82.77,-48.78 72.27,-38.14 63.35,-29.1"/>
<polygon fill="#63b8ff" stroke="#63b8ff" points="66.02,-26.82 56.51,-22.16 61.04,-31.73 66.02,-26.82"/>
</a>
</g>
</g>
<!-- Node8 -->
<g id="Node000008" class="node">
<title>Node8</title>
<g id="a_Node000008"><a xlink:href="../../db/d90/utf8__pragma_8h.html" target="_top" xlink:title="Cross&#45;compiler pragma wrapper macros.">
<polygon fill="white" stroke="#666666" points="197.5,-20.75 110.25,-20.75 110.25,0 197.5,0 197.5,-20.75"/>
<text xml:space="preserve" text-anchor="middle" x="153.88" y="-7.25" font-family="Helvetica,sans-Serif" font-size="10.00">utf8_pragma.h</text>
</a>
</g>
</g>
<!-- Node6&#45;&gt;Node8 -->
<g id="edge7_Node000006_Node000008" class="edge">
<title>Node6&#45;&gt;Node8</title>
<g id="a_edge7_Node000006_Node000008"><a xlink:title=" ">
<path fill="none" stroke="#63b8ff" d="M109.53,-56.34C116.98,-48.78 127.48,-38.14 136.4,-29.1"/>
<polygon fill="#63b8ff" stroke="#63b8ff" points="138.71,-31.73 143.24,-22.16 133.73,-26.82 138.71,-31.73"/>
</a>
</g>
</g>
</g>
</svg>
