<?xml version="1.0" encoding="UTF-8" standalone="no"?>
<!DOCTYPE svg PUBLIC "-//W3C//DTD SVG 1.1//EN"
 "http://www.w3.org/Graphics/SVG/1.1/DTD/svg11.dtd">
<!-- Generated by graphviz version 14.1.4 (0)
 -->
<!-- Title: test&#45;utf8.c Pages: 1 -->
<svg width="292pt" height="313pt"
 viewBox="0.00 0.00 292.00 313.00" xmlns="http://www.w3.org/2000/svg" xmlns:xlink="http://www.w3.org/1999/xlink">
<g id="graph0" class="graph" transform="scale(1 1) rotate(0) translate(4 308.5)">
<title>test&#45;utf8.c</title>
<!-- Node1 -->
<g id="Node000001" class="node">
<title>Node1</title>
<g id="a_Node000001"><a xlink:title=" ">
<polygon fill="#999999" stroke="#666666" points="187.25,-304.5 121,-304.5 121,-283.75 187.25,-283.75 187.25,-304.5"/>
<text xml:space="preserve" text-anchor="middle" x="154.12" y="-291" font-family="Helvetica,sans-Serif" font-size="10.00">test&#45;utf8.c</text>
</a>
</g>
</g>
<!-- Node2 -->
<g id="Node000002" class="node">
<title>Node2</title>
<g id="a_Node000002"><a xlink:title=" ">
<polygon fill="#e0e0e0" stroke="#999999" points="102.25,-247.75 0,-247.75 0,-227 102.25,-227 102.25,-247.75"/>
<text xml:space="preserve" text-anchor="middle" x="51.12" y="-234.25" font-family="Helvetica,sans-Serif" font-size="10.00">letopt/src/letopt.h</text>
</a>
</g>
</g>
<!-- Node1&#45;&gt;Node2 -->
<g id="edge1_Node000001_Node000002" class="edge">
<title>Node1&#45;&gt;Node2</title>
<g id="a_edge1_Node000001_Node000002"><a xlink:title=" ">
<path fill="none" stroke="#63b8ff" d="M135.71,-283.34C120.04,-275.01 97.28,-262.91 79.31,-253.36"/>
<polygon fill="#63b8ff" stroke="#63b8ff" points="81.19,-250.39 70.72,-248.79 77.9,-256.57 81.19,-250.39"/>
</a>
</g>
</g>
<!-- Node3 -->
<g id="Node000003" class="node">
<title>Node3</title>
<g id="a_Node000003"><a xlink:href="../../d3/d30/utf8__priv_8h.html" target="_top" xlink:title="Including this private header before utf8.h prevents UTF8_PARSER_DESCRIPTOR from being undefined at t...">
<polygon fill="white" stroke="#666666" points="188,-247.75 120.25,-247.75 120.25,-227 188,-227 188,-247.75"/>
<text xml:space="preserve" text-anchor="middle" x="154.12" y="-234.25" font-family="Helvetica,sans-Serif" font-size="10.00">utf8_priv.h</text>
</a>
</g>
</g>
<!-- Node1&#45;&gt;Node3 -->
<g id="edge2_Node000001_Node000003" class="edge">
<title>Node1&#45;&gt;Node3</title>
<g id="a_edge2_Node000001_Node000003"><a xlink:title=" ">
<path fill="none" stroke="#63b8ff" d="M154.12,-283.34C154.12,-276.72 154.12,-267.72 154.12,-259.52"/>
<polygon fill="#63b8ff" stroke="#63b8ff" points="157.63,-259.59 154.13,-249.59 150.63,-259.59 157.63,-259.59"/>
</a>
</g>
</g>
<!-- Node9 -->
<g id="Node000009" class="node">
<title>Node9</title>
<g id="a_Node000009"><a xlink:href="../../dc/dab/utf8__graph_8h.html" target="_top" xlink:title=" ">
<polygon fill="white" stroke="#666666" points="283.88,-247.75 206.38,-247.75 206.38,-227 283.88,-227 283.88,-247.75"/>
<text xml:space="preserve" text-anchor="middle" x="245.12" y="-234.25" font-family="Helvetica,sans-Serif" font-size="10.00">utf8_graph.h</text>
</a>
</g>
</g>
<!-- Node1&#45;&gt;Node9 -->
<g id="edge10_Node000001_Node000009" class="edge">
<title>Node1&#45;&gt;Node9</title>
<g id="a_edge10_Node000001_Node000009"><a xlink:title=" ">
<path fill="none" stroke="#63b8ff" d="M170.39,-283.34C183.98,-275.16 203.6,-263.36 219.33,-253.9"/>
<polygon fill="#63b8ff" stroke="#63b8ff" points="220.94,-257.01 227.7,-248.86 217.33,-251.02 220.94,-257.01"/>
</a>
</g>
</g>
<!-- Node4 -->
<g id="Node000004" class="node">
<title>Node4</title>
<g id="a_Node000004"><a xlink:href="../../db/d7c/utf8_8h.html" target="_top" xlink:title=" ">
<polygon fill="white" stroke="#666666" points="176.38,-191 131.88,-191 131.88,-170.25 176.38,-170.25 176.38,-191"/>
<text xml:space="preserve" text-anchor="middle" x="154.12" y="-177.5" font-family="Helvetica,sans-Serif" font-size="10.00">utf8.h</text>
</a>
</g>
</g>
<!-- Node3&#45;&gt;Node4 -->
<g id="edge3_Node000003_Node000004" class="edge">
<title>Node3&#45;&gt;Node4</title>
<g id="a_edge3_Node000003_Node000004"><a xlink:title=" ">
<path fill="none" stroke="#63b8ff" d="M148.81,-226.59C147.54,-219.97 147.11,-210.97 147.53,-202.77"/>
<polygon fill="#63b8ff" stroke="#63b8ff" points="151.01,-203.16 148.66,-192.83 144.05,-202.38 151.01,-203.16"/>
</a>
</g>
</g>
<!-- Node4&#45;&gt;Node3 -->
<g id="edge9_Node000004_Node000003" class="edge">
<title>Node4&#45;&gt;Node3</title>
<g id="a_edge9_Node000004_Node000003"><a xlink:title=" ">
<path fill="none" stroke="#63b8ff" d="M159.42,-191.33C160.72,-198 161.15,-207.13 160.71,-215.42"/>
<polygon fill="#63b8ff" stroke="#63b8ff" points="157.26,-214.75 159.61,-225.08 164.22,-215.54 157.26,-214.75"/>
</a>
</g>
</g>
<!-- Node5 -->
<g id="Node000005" class="node">
<title>Node5</title>
<g id="a_Node000005"><a xlink:href="../../dd/d13/utf8__compat_8h.html" target="_top" xlink:title=" ">
<polygon fill="white" stroke="#666666" points="197.38,-77.5 110.88,-77.5 110.88,-56.75 197.38,-56.75 197.38,-77.5"/>
<text xml:space="preserve" text-anchor="middle" x="154.12" y="-64" font-family="Helvetica,sans-Serif" font-size="10.00">utf8_compat.h</text>
</a>
</g>
</g>
<!-- Node4&#45;&gt;Node5 -->
<g id="edge4_Node000004_Node000005" class="edge">
<title>Node4&#45;&gt;Node5</title>
<g id="a_edge4_Node000004_Node000005"><a xlink:title=" ">
<path fill="none" stroke="#63b8ff" d="M151.09,-170.01C148.38,-160.91 144.63,-146.81 143.12,-134.25 142.03,-125.09 142.03,-122.66 143.12,-113.5 144.11,-105.26 146.07,-96.35 148.06,-88.63"/>
<polygon fill="#63b8ff" stroke="#63b8ff" points="151.38,-89.77 150.68,-79.2 144.63,-87.89 151.38,-89.77"/>
</a>
</g>
</g>
<!-- Node8 -->
<g id="Node000008" class="node">
<title>Node8</title>
<g id="a_Node000008"><a xlink:href="../../d3/db6/utf8__util_8h.html" target="_top" xlink:title=" ">
<polygon fill="white" stroke="#666666" points="217.88,-134.25 152.38,-134.25 152.38,-113.5 217.88,-113.5 217.88,-134.25"/>
<text xml:space="preserve" text-anchor="middle" x="185.12" y="-120.75" font-family="Helvetica,sans-Serif" font-size="10.00">utf8_util.h</text>
</a>
</g>
</g>
<!-- Node4&#45;&gt;Node8 -->
<g id="edge7_Node000004_Node000008" class="edge">
<title>Node4&#45;&gt;Node8</title>
<g id="a_edge7_Node000004_Node000008"><a xlink:title=" ">
<path fill="none" stroke="#63b8ff" d="M159.67,-169.84C163.63,-162.83 169.11,-153.16 173.97,-144.58"/>
<polygon fill="#63b8ff" stroke="#63b8ff" points="177,-146.32 178.89,-135.9 170.91,-142.87 177,-146.32"/>
</a>
</g>
</g>
<!-- Node6 -->
<g id="Node000006" class="node">
<title>Node6</title>
<g id="a_Node000006"><a xlink:href="../../d1/dd3/utf8__compiler_8h.html" target="_top" xlink:title="Compiler identification convenience macros.">
<polygon fill="white" stroke="#666666" points="146,-20.75 54.25,-20.75 54.25,0 146,0 146,-20.75"/>
<text xml:space="preserve" text-anchor="middle" x="100.12" y="-7.25" font-family="Helvetica,sans-Serif" font-size="10.00">utf8_compiler.h</text>
</a>
</g>
</g>
<!-- Node5&#45;&gt;Node6 -->
<g id="edge5_Node000005_Node000006" class="edge">
<title>Node5&#45;&gt;Node6</title>
<g id="a_edge5_Node000005_Node000006"><a xlink:title=" ">
<path fill="none" stroke="#63b8ff" d="M144.47,-56.34C137.02,-48.78 126.52,-38.14 117.6,-29.1"/>
<polygon fill="#63b8ff" stroke="#63b8ff" points="120.27,-26.82 110.76,-22.16 115.29,-31.73 120.27,-26.82"/>
</a>
</g>
</g>
<!-- Node7 -->
<g id="Node000007" class="node">
<title>Node7</title>
<g id="a_Node000007"><a xlink:href="../../db/d90/utf8__pragma_8h.html" target="_top" xlink:title="Cross&#45;compiler pragma wrapper macros.">
<polygon fill="white" stroke="#666666" points="251.75,-20.75 164.5,-20.75 164.5,0 251.75,0 251.75,-20.75"/>
<text xml:space="preserve" text-anchor="middle" x="208.12" y="-7.25" font-family="Helvetica,sans-Serif" font-size="10.00">utf8_pragma.h</text>
</a>
</g>
</g>
<!-- Node5&#45;&gt;Node7 -->
<g id="edge6_Node000005_Node000007" class="edge">
<title>Node5&#45;&gt;Node7</title>
<g id="a_edge6_Node000005_Node000007"><a xlink:title=" ">
<path fill="none" stroke="#63b8ff" d="M163.78,-56.34C171.23,-48.78 181.73,-38.14 190.65,-29.1"/>
<polygon fill="#63b8ff" stroke="#63b8ff" points="192.96,-31.73 197.49,-22.16 187.98,-26.82 192.96,-31.73"/>
</a>
</g>
</g>
<!-- Node8&#45;&gt;Node5 -->
<g id="edge8_Node000008_Node000005" class="edge">
<title>Node8&#45;&gt;Node5</title>
<g id="a_edge8_Node000008_Node000005"><a xlink:title=" ">
<path fill="none" stroke="#63b8ff" d="M179.58,-113.09C175.62,-106.08 170.14,-96.41 165.28,-87.83"/>
<polygon fill="#63b8ff" stroke="#63b8ff" points="168.34,-86.12 160.36,-79.15 162.25,-89.57 168.34,-86.12"/>
</a>
</g>
</g>
</g>
</svg>
