<?xml version="1.0" encoding="UTF-8" standalone="no"?>
<!DOCTYPE svg PUBLIC "-//W3C//DTD SVG 1.1//EN"
 "http://www.w3.org/Graphics/SVG/1.1/DTD/svg11.dtd">
<!-- Generated by graphviz version 14.1.4 (0)
 -->
<!-- Title: utf8.h Pages: 1 -->
<svg width="206pt" height="199pt"
 viewBox="0.00 0.00 206.00 199.00" xmlns="http://www.w3.org/2000/svg" xmlns:xlink="http://www.w3.org/1999/xlink">
<g id="graph0" class="graph" transform="scale(1 1) rotate(0) translate(4 195)">
<title>utf8.h</title>
<!-- Node1 -->
<g id="Node000001" class="node">
<title>Node1</title>
<g id="a_Node000001"><a xlink:title=" ">
<polygon fill="#999999" stroke="#666666" points="98.38,-191 53.88,-191 53.88,-170.25 98.38,-170.25 98.38,-191"/>
<text xml:space="preserve" text-anchor="middle" x="76.12" y="-177.5" font-family="Helvetica,sans-Serif" font-size="10.00">utf8.h</text>
</a>
</g>
</g>
<!-- Node2 -->
<g id="Node000002" class="node">
<title>Node2</title>
<g id="a_Node000002"><a xlink:href="../../d3/d30/utf8__priv_8h.html" target="_top" xlink:title="Including this private header before utf8.h prevents UTF8_PARSER_DESCRIPTOR from being undefined at t...">
<polygon fill="white" stroke="#666666" points="110,-134.25 42.25,-134.25 42.25,-113.5 110,-113.5 110,-134.25"/>
<text xml:space="preserve" text-anchor="middle" x="76.12" y="-120.75" font-family="Helvetica,sans-Serif" font-size="10.00">utf8_priv.h</text>
</a>
</g>
</g>
<!-- Node1&#45;&gt;Node2 -->
<g id="edge1_Node000001_Node000002" class="edge">
<title>Node1&#45;&gt;Node2</title>
<g id="a_edge1_Node000001_Node000002"><a xlink:title=" ">
<path fill="none" stroke="#63b8ff" d="M69.54,-158.67C69.1,-150.38 69.53,-141.25 70.83,-134.58"/>
<polygon fill="#63b8ff" stroke="#63b8ff" points="66.03,-158.79 70.64,-168.33 72.99,-158 66.03,-158.79"/>
</a>
</g>
</g>
<!-- Node2&#45;&gt;Node1 -->
<g id="edge3_Node000002_Node000001" class="edge">
<title>Node2&#45;&gt;Node1</title>
<g id="a_edge3_Node000002_Node000001"><a xlink:title=" ">
<path fill="none" stroke="#63b8ff" d="M82.72,-146.02C83.14,-154.22 82.71,-163.22 81.44,-169.84"/>
<polygon fill="#63b8ff" stroke="#63b8ff" points="86.2,-145.63 81.59,-136.08 79.24,-146.41 86.2,-145.63"/>
</a>
</g>
</g>
<!-- Node3 -->
<g id="Node000003" class="node">
<title>Node3</title>
<g id="a_Node000003"><a xlink:href="../../d4/d15/test-utf8_8c.html" target="_top" xlink:title=" ">
<polygon fill="white" stroke="#666666" points="66.25,-77.5 0,-77.5 0,-56.75 66.25,-56.75 66.25,-77.5"/>
<text xml:space="preserve" text-anchor="middle" x="33.12" y="-64" font-family="Helvetica,sans-Serif" font-size="10.00">test&#45;utf8.c</text>
</a>
</g>
</g>
<!-- Node2&#45;&gt;Node3 -->
<g id="edge2_Node000002_Node000003" class="edge">
<title>Node2&#45;&gt;Node3</title>
<g id="a_edge2_Node000002_Node000003"><a xlink:title=" ">
<path fill="none" stroke="#63b8ff" d="M61.46,-104.21C54.5,-95.34 46.48,-85.12 40.75,-77.83"/>
<polygon fill="#63b8ff" stroke="#63b8ff" points="58.57,-106.19 67.5,-111.9 64.08,-101.87 58.57,-106.19"/>
</a>
</g>
</g>
<!-- Node4 -->
<g id="Node000004" class="node">
<title>Node4</title>
<g id="a_Node000004"><a xlink:href="../../d8/dfc/utf8__impl_8h.html" target="_top" xlink:title=" ">
<polygon fill="white" stroke="#666666" points="155.88,-77.5 84.38,-77.5 84.38,-56.75 155.88,-56.75 155.88,-77.5"/>
<text xml:space="preserve" text-anchor="middle" x="120.12" y="-64" font-family="Helvetica,sans-Serif" font-size="10.00">utf8_impl.h</text>
</a>
</g>
</g>
<!-- Node2&#45;&gt;Node4 -->
<g id="edge4_Node000002_Node000004" class="edge">
<title>Node2&#45;&gt;Node4</title>
<g id="a_edge4_Node000002_Node000004"><a xlink:title=" ">
<path fill="none" stroke="#63b8ff" d="M91.13,-104.21C98.25,-95.34 106.46,-85.12 112.33,-77.83"/>
<polygon fill="#63b8ff" stroke="#63b8ff" points="88.48,-101.92 84.94,-111.91 93.93,-106.3 88.48,-101.92"/>
</a>
</g>
</g>
<!-- Node5 -->
<g id="Node000005" class="node">
<title>Node5</title>
<g id="a_Node000005"><a xlink:href="../../df/d51/utf8_8c.html" target="_top" xlink:title=" ">
<polygon fill="white" stroke="#666666" points="103,-20.75 59.25,-20.75 59.25,0 103,0 103,-20.75"/>
<text xml:space="preserve" text-anchor="middle" x="81.12" y="-7.25" font-family="Helvetica,sans-Serif" font-size="10.00">utf8.c</text>
</a>
</g>
</g>
<!-- Node4&#45;&gt;Node5 -->
<g id="edge5_Node000004_Node000005" class="edge">
<title>Node4&#45;&gt;Node5</title>
<g id="a_edge5_Node000004_Node000005"><a xlink:title=" ">
<path fill="none" stroke="#63b8ff" d="M106.63,-47.17C100.36,-38.38 93.18,-28.3 88.04,-21.08"/>
<polygon fill="#63b8ff" stroke="#63b8ff" points="103.62,-48.99 112.27,-55.1 109.32,-44.93 103.62,-48.99"/>
</a>
</g>
</g>
<!-- Node6 -->
<g id="Node000006" class="node">
<title>Node6</title>
<g id="a_Node000006"><a xlink:href="../../d9/d0d/utf8__graph_8c.html" target="_top" xlink:title=" ">
<polygon fill="white" stroke="#666666" points="197.5,-20.75 120.75,-20.75 120.75,0 197.5,0 197.5,-20.75"/>
<text xml:space="preserve" text-anchor="middle" x="159.12" y="-7.25" font-family="Helvetica,sans-Serif" font-size="10.00">utf8_graph.c</text>
</a>
</g>
</g>
<!-- Node4&#45;&gt;Node6 -->
<g id="edge6_Node000004_Node000006" class="edge">
<title>Node4&#45;&gt;Node6</title>
<g id="a_edge6_Node000004_Node000006"><a xlink:title=" ">
<path fill="none" stroke="#63b8ff" d="M133.62,-47.17C139.89,-38.38 147.07,-28.3 152.21,-21.08"/>
<polygon fill="#63b8ff" stroke="#63b8ff" points="130.93,-44.93 127.98,-55.1 136.63,-48.99 130.93,-44.93"/>
</a>
</g>
</g>
</g>
</svg>
