<?xml version="1.0" encoding="UTF-8" standalone="no"?>
<!DOCTYPE svg PUBLIC "-//W3C//DTD SVG 1.1//EN"
 "http://www.w3.org/Graphics/SVG/1.1/DTD/svg11.dtd">
<!-- Generated by graphviz version 14.1.4 (0)
 -->
<!-- Title: utf8_pragma.h Pages: 1 -->
<svg width="146pt" height="369pt"
 viewBox="0.00 0.00 146.00 369.00" xmlns="http://www.w3.org/2000/svg" xmlns:xlink="http://www.w3.org/1999/xlink">
<g id="graph0" class="graph" transform="scale(1 1) rotate(0) translate(4 365.25)">
<title>utf8_pragma.h</title>
<!-- Node1 -->
<g id="Node000001" class="node">
<title>Node1</title>
<g id="a_Node000001"><a xlink:title="Cross&#45;compiler pragma wrapper macros.">
<polygon fill="#999999" stroke="#666666" points="104.5,-361.25 17.25,-361.25 17.25,-340.5 104.5,-340.5 104.5,-361.25"/>
<text xml:space="preserve" text-anchor="middle" x="60.88" y="-347.75" font-family="Helvetica,sans-Serif" font-size="10.00">utf8_pragma.h</text>
</a>
</g>
</g>
<!-- Node2 -->
<g id="Node000002" class="node">
<title>Node2</title>
<g id="a_Node000002"><a xlink:href="../../dd/d13/utf8__compat_8h.html" target="_top" xlink:title=" ">
<polygon fill="white" stroke="#666666" points="104.12,-304.5 17.62,-304.5 17.62,-283.75 104.12,-283.75 104.12,-304.5"/>
<text xml:space="preserve" text-anchor="middle" x="60.88" y="-291" font-family="Helvetica,sans-Serif" font-size="10.00">utf8_compat.h</text>
</a>
</g>
</g>
<!-- Node1&#45;&gt;Node2 -->
<g id="edge1_Node000001_Node000002" class="edge">
<title>Node1&#45;&gt;Node2</title>
<g id="a_edge1_Node000001_Node000002"><a xlink:title=" ">
<path fill="none" stroke="#63b8ff" d="M60.88,-328.63C60.88,-320.41 60.88,-311.43 60.88,-304.83"/>
<polygon fill="#63b8ff" stroke="#63b8ff" points="57.38,-328.57 60.88,-338.57 64.38,-328.57 57.38,-328.57"/>
</a>
</g>
</g>
<!-- Node3 -->
<g id="Node000003" class="node">
<title>Node3</title>
<g id="a_Node000003"><a xlink:href="../../d3/db6/utf8__util_8h.html" target="_top" xlink:title=" ">
<polygon fill="white" stroke="#666666" points="93.62,-247.75 28.12,-247.75 28.12,-227 93.62,-227 93.62,-247.75"/>
<text xml:space="preserve" text-anchor="middle" x="60.88" y="-234.25" font-family="Helvetica,sans-Serif" font-size="10.00">utf8_util.h</text>
</a>
</g>
</g>
<!-- Node2&#45;&gt;Node3 -->
<g id="edge2_Node000002_Node000003" class="edge">
<title>Node2&#45;&gt;Node3</title>
<g id="a_edge2_Node000002_Node000003"><a xlink:title=" ">
<path fill="none" stroke="#63b8ff" d="M60.88,-271.88C60.88,-263.66 60.88,-254.68 60.88,-248.08"/>
<polygon fill="#63b8ff" stroke="#63b8ff" points="57.38,-271.82 60.88,-281.82 64.38,-271.82 57.38,-271.82"/>
</a>
</g>
</g>
<!-- Node4 -->
<g id="Node000004" class="node">
<title>Node4</title>
<g id="a_Node000004"><a xlink:href="../../db/d7c/utf8_8h.html" target="_top" xlink:title=" ">
<polygon fill="white" stroke="#666666" points="83.12,-191 38.62,-191 38.62,-170.25 83.12,-170.25 83.12,-191"/>
<text xml:space="preserve" text-anchor="middle" x="60.88" y="-177.5" font-family="Helvetica,sans-Serif" font-size="10.00">utf8.h</text>
</a>
</g>
</g>
<!-- Node3&#45;&gt;Node4 -->
<g id="edge3_Node000003_Node000004" class="edge">
<title>Node3&#45;&gt;Node4</title>
<g id="a_edge3_Node000003_Node000004"><a xlink:title=" ">
<path fill="none" stroke="#63b8ff" d="M60.88,-215.13C60.88,-206.91 60.88,-197.93 60.88,-191.33"/>
<polygon fill="#63b8ff" stroke="#63b8ff" points="57.38,-215.07 60.88,-225.07 64.38,-215.07 57.38,-215.07"/>
</a>
</g>
</g>
<!-- Node5 -->
<g id="Node000005" class="node">
<title>Node5</title>
<g id="a_Node000005"><a xlink:href="../../d3/d30/utf8__priv_8h.html" target="_top" xlink:title="Including this private header before utf8.h prevents UTF8_PARSER_DESCRIPTOR from being undefined at t...">
<polygon fill="white" stroke="#666666" points="94.75,-134.25 27,-134.25 27,-113.5 94.75,-113.5 94.75,-134.25"/>
<text xml:space="preserve" text-anchor="middle" x="60.88" y="-120.75" font-family="Helvetica,sans-Serif" font-size="10.00">utf8_priv.h</text>
</a>
</g>
</g>
<!-- Node4&#45;&gt;Node5 -->
<g id="edge4_Node000004_Node000005" class="edge">
<title>Node4&#45;&gt;Node5</title>
<g id="a_edge4_Node000004_Node000005"><a xlink:title=" ">
<path fill="none" stroke="#63b8ff" d="M54.29,-158.67C53.85,-150.38 54.28,-141.25 55.58,-134.58"/>
<polygon fill="#63b8ff" stroke="#63b8ff" points="50.78,-158.79 55.39,-168.33 57.74,-158 50.78,-158.79"/>
</a>
</g>
</g>
<!-- Node5&#45;&gt;Node4 -->
<g id="edge5_Node000005_Node000004" class="edge">
<title>Node5&#45;&gt;Node4</title>
<g id="a_edge5_Node000005_Node000004"><a xlink:title=" ">
<path fill="none" stroke="#63b8ff" d="M67.47,-146.02C67.89,-154.22 67.46,-163.22 66.19,-169.84"/>
<polygon fill="#63b8ff" stroke="#63b8ff" points="70.95,-145.63 66.34,-136.08 63.99,-146.41 70.95,-145.63"/>
</a>
</g>
</g>
<!-- Node6 -->
<g id="Node000006" class="node">
<title>Node6</title>
<g id="a_Node000006"><a xlink:href="../../d8/dfc/utf8__impl_8h.html" target="_top" xlink:title=" ">
<polygon fill="white" stroke="#666666" points="96.62,-77.5 25.12,-77.5 25.12,-56.75 96.62,-56.75 96.62,-77.5"/>
<text xml:space="preserve" text-anchor="middle" x="60.88" y="-64" font-family="Helvetica,sans-Serif" font-size="10.00">utf8_impl.h</text>
</a>
</g>
</g>
<!-- Node5&#45;&gt;Node6 -->
<g id="edge6_Node000005_Node000006" class="edge">
<title>Node5&#45;&gt;Node6</title>
<g id="a_edge6_Node000005_Node000006"><a xlink:title=" ">
<path fill="none" stroke="#63b8ff" d="M60.88,-101.63C60.88,-93.41 60.88,-84.43 60.88,-77.83"/>
<polygon fill="#63b8ff" stroke="#63b8ff" points="57.38,-101.57 60.88,-111.57 64.38,-101.57 57.38,-101.57"/>
</a>
</g>
</g>
<!-- Node7 -->
<g id="Node000007" class="node">
<title>Node7</title>
<g id="a_Node000007"><a xlink:href="../../df/d51/utf8_8c.html" target="_top" xlink:title=" ">
<polygon fill="white" stroke="#666666" points="43.75,-20.75 0,-20.75 0,0 43.75,0 43.75,-20.75"/>
<text xml:space="preserve" text-anchor="middle" x="21.88" y="-7.25" font-family="Helvetica,sans-Serif" font-size="10.00">utf8.c</text>
</a>
</g>
</g>
<!-- Node6&#45;&gt;Node7 -->
<g id="edge7_Node000006_Node000007" class="edge">
<title>Node6&#45;&gt;Node7</title>
<g id="a_edge7_Node000006_Node000007"><a xlink:title=" ">
<path fill="none" stroke="#63b8ff" d="M47.38,-47.17C41.11,-38.38 33.93,-28.3 28.79,-21.08"/>
<polygon fill="#63b8ff" stroke="#63b8ff" points="44.37,-48.99 53.02,-55.1 50.07,-44.93 44.37,-48.99"/>
</a>
</g>
</g>
<!-- Node8 -->
<g id="Node000008" class="node">
<title>Node8</title>
<g id="a_Node000008"><a xlink:href="../../d9/d0d/utf8__graph_8c.html" target="_top" xlink:title=" ">
<polygon fill="white" stroke="#666666" points="138.25,-20.75 61.5,-20.75 61.5,0 138.25,0 138.25,-20.75"/>
<text xml:space="preserve" text-anchor="middle" x="99.88" y="-7.25" font-family="Helvetica,sans-Serif" font-size="10.00">utf8_graph.c</text>
</a>
</g>
</g>
<!-- Node6&#45;&gt;Node8 -->
<g id="edge8_Node000006_Node000008" class="edge">
<title>Node6&#45;&gt;Node8</title>
<g id="a_edge8_Node000006_Node000008"><a xlink:title=" ">
<path fill="none" stroke="#63b8ff" d="M74.37,-47.17C80.64,-38.38 87.82,-28.3 92.96,-21.08"/>
<polygon fill="#63b8ff" stroke="#63b8ff" points="71.68,-44.93 68.73,-55.1 77.38,-48.99 71.68,-44.93"/>
</a>
</g>
</g>
</g>
</svg>
