<?xml version="1.0" encoding="UTF-8" standalone="no"?>
<!DOCTYPE svg PUBLIC "-//W3C//DTD SVG 1.1//EN"
 "http://www.w3.org/Graphics/SVG/1.1/DTD/svg11.dtd">
<!-- Generated by graphviz version 14.1.4 (0)
 -->
<!-- Title: utf8_pragma.h Pages: 1 -->
<svg width="150pt" height="369pt"
 viewBox="0.00 0.00 150.00 369.00" xmlns="http://www.w3.org/2000/svg" xmlns:xlink="http://www.w3.org/1999/xlink">
<g id="graph0" class="graph" transform="scale(1 1) rotate(0) translate(4 365.25)">
<title>utf8_pragma.h</title>
<!-- Node1 -->
<g id="Node000001" class="node">
<title>Node1</title>
<g id="a_Node000001"><a xlink:title="Cross&#45;compiler pragma wrapper macros.">
<polygon fill="#999999" stroke="#666666" points="107.5,-361.25 20.25,-361.25 20.25,-340.5 107.5,-340.5 107.5,-361.25"/>
<text xml:space="preserve" text-anchor="middle" x="63.88" y="-347.75" font-family="Helvetica,sans-Serif" font-size="10.00">utf8_pragma.h</text>
</a>
</g>
</g>
<!-- Node2 -->
<g id="Node000002" class="node">
<title>Node2</title>
<g id="a_Node000002"><a xlink:href="../../dd/d13/utf8__compat_8h.html" target="_top" xlink:title=" ">
<polygon fill="white" stroke="#666666" points="107.12,-304.5 20.62,-304.5 20.62,-283.75 107.12,-283.75 107.12,-304.5"/>
<text xml:space="preserve" text-anchor="middle" x="63.88" y="-291" font-family="Helvetica,sans-Serif" font-size="10.00">utf8_compat.h</text>
</a>
</g>
</g>
<!-- Node1&#45;&gt;Node2 -->
<g id="edge1_Node000001_Node000002" class="edge">
<title>Node1&#45;&gt;Node2</title>
<g id="a_edge1_Node000001_Node000002"><a xlink:title=" ">
<path fill="none" stroke="#63b8ff" d="M63.88,-328.63C63.88,-320.41 63.88,-311.43 63.88,-304.83"/>
<polygon fill="#63b8ff" stroke="#63b8ff" points="60.38,-328.57 63.88,-338.57 67.38,-328.57 60.38,-328.57"/>
</a>
</g>
</g>
<!-- Node3 -->
<g id="Node000003" class="node">
<title>Node3</title>
<g id="a_Node000003"><a xlink:href="../../db/d7c/utf8_8h.html" target="_top" xlink:title=" ">
<polygon fill="white" stroke="#666666" points="56.12,-191 11.62,-191 11.62,-170.25 56.12,-170.25 56.12,-191"/>
<text xml:space="preserve" text-anchor="middle" x="33.88" y="-177.5" font-family="Helvetica,sans-Serif" font-size="10.00">utf8.h</text>
</a>
</g>
</g>
<!-- Node2&#45;&gt;Node3 -->
<g id="edge2_Node000002_Node000003" class="edge">
<title>Node2&#45;&gt;Node3</title>
<g id="a_edge2_Node000002_Node000003"><a xlink:title=" ">
<path fill="none" stroke="#63b8ff" d="M58.34,-272.55C51.85,-248.45 41.38,-209.5 36.51,-191.43"/>
<polygon fill="#63b8ff" stroke="#63b8ff" points="54.95,-273.41 60.92,-282.16 61.71,-271.59 54.95,-273.41"/>
</a>
</g>
</g>
<!-- Node8 -->
<g id="Node000008" class="node">
<title>Node8</title>
<g id="a_Node000008"><a xlink:href="../../d3/db6/utf8__util_8h.html" target="_top" xlink:title=" ">
<polygon fill="white" stroke="#666666" points="127.62,-247.75 62.12,-247.75 62.12,-227 127.62,-227 127.62,-247.75"/>
<text xml:space="preserve" text-anchor="middle" x="94.88" y="-234.25" font-family="Helvetica,sans-Serif" font-size="10.00">utf8_util.h</text>
</a>
</g>
</g>
<!-- Node2&#45;&gt;Node8 -->
<g id="edge8_Node000002_Node000008" class="edge">
<title>Node2&#45;&gt;Node8</title>
<g id="a_edge8_Node000002_Node000008"><a xlink:title=" ">
<path fill="none" stroke="#63b8ff" d="M75.09,-273.32C79.95,-264.73 85.43,-255.06 89.38,-248.08"/>
<polygon fill="#63b8ff" stroke="#63b8ff" points="72.04,-271.59 70.16,-282.02 78.14,-275.04 72.04,-271.59"/>
</a>
</g>
</g>
<!-- Node4 -->
<g id="Node000004" class="node">
<title>Node4</title>
<g id="a_Node000004"><a xlink:href="../../d3/d30/utf8__priv_8h.html" target="_top" xlink:title="Including this private header before utf8.h prevents UTF8_PARSER_DESCRIPTOR from being undefined at t...">
<polygon fill="white" stroke="#666666" points="67.75,-134.25 0,-134.25 0,-113.5 67.75,-113.5 67.75,-134.25"/>
<text xml:space="preserve" text-anchor="middle" x="33.88" y="-120.75" font-family="Helvetica,sans-Serif" font-size="10.00">utf8_priv.h</text>
</a>
</g>
</g>
<!-- Node3&#45;&gt;Node4 -->
<g id="edge3_Node000003_Node000004" class="edge">
<title>Node3&#45;&gt;Node4</title>
<g id="a_edge3_Node000003_Node000004"><a xlink:title=" ">
<path fill="none" stroke="#63b8ff" d="M27.29,-158.67C26.85,-150.38 27.28,-141.25 28.58,-134.58"/>
<polygon fill="#63b8ff" stroke="#63b8ff" points="23.78,-158.79 28.39,-168.33 30.74,-158 23.78,-158.79"/>
</a>
</g>
</g>
<!-- Node4&#45;&gt;Node3 -->
<g id="edge4_Node000004_Node000003" class="edge">
<title>Node4&#45;&gt;Node3</title>
<g id="a_edge4_Node000004_Node000003"><a xlink:title=" ">
<path fill="none" stroke="#63b8ff" d="M40.47,-146.02C40.89,-154.22 40.46,-163.22 39.19,-169.84"/>
<polygon fill="#63b8ff" stroke="#63b8ff" points="43.95,-145.63 39.34,-136.08 36.99,-146.41 43.95,-145.63"/>
</a>
</g>
</g>
<!-- Node5 -->
<g id="Node000005" class="node">
<title>Node5</title>
<g id="a_Node000005"><a xlink:href="../../d8/dfc/utf8__impl_8h.html" target="_top" xlink:title=" ">
<polygon fill="white" stroke="#666666" points="100.62,-77.5 29.12,-77.5 29.12,-56.75 100.62,-56.75 100.62,-77.5"/>
<text xml:space="preserve" text-anchor="middle" x="64.88" y="-64" font-family="Helvetica,sans-Serif" font-size="10.00">utf8_impl.h</text>
</a>
</g>
</g>
<!-- Node4&#45;&gt;Node5 -->
<g id="edge5_Node000004_Node000005" class="edge">
<title>Node4&#45;&gt;Node5</title>
<g id="a_edge5_Node000004_Node000005"><a xlink:title=" ">
<path fill="none" stroke="#63b8ff" d="M45.09,-103.07C49.95,-94.48 55.43,-84.81 59.38,-77.83"/>
<polygon fill="#63b8ff" stroke="#63b8ff" points="42.04,-101.34 40.16,-111.77 48.14,-104.79 42.04,-101.34"/>
</a>
</g>
</g>
<!-- Node6 -->
<g id="Node000006" class="node">
<title>Node6</title>
<g id="a_Node000006"><a xlink:href="../../df/d51/utf8_8c.html" target="_top" xlink:title=" ">
<polygon fill="white" stroke="#666666" points="47.75,-20.75 4,-20.75 4,0 47.75,0 47.75,-20.75"/>
<text xml:space="preserve" text-anchor="middle" x="25.88" y="-7.25" font-family="Helvetica,sans-Serif" font-size="10.00">utf8.c</text>
</a>
</g>
</g>
<!-- Node5&#45;&gt;Node6 -->
<g id="edge6_Node000005_Node000006" class="edge">
<title>Node5&#45;&gt;Node6</title>
<g id="a_edge6_Node000005_Node000006"><a xlink:title=" ">
<path fill="none" stroke="#63b8ff" d="M51.38,-47.17C45.11,-38.38 37.93,-28.3 32.79,-21.08"/>
<polygon fill="#63b8ff" stroke="#63b8ff" points="48.37,-48.99 57.02,-55.1 54.07,-44.93 48.37,-48.99"/>
</a>
</g>
</g>
<!-- Node7 -->
<g id="Node000007" class="node">
<title>Node7</title>
<g id="a_Node000007"><a xlink:href="../../d9/d0d/utf8__graph_8c.html" target="_top" xlink:title=" ">
<polygon fill="white" stroke="#666666" points="142.25,-20.75 65.5,-20.75 65.5,0 142.25,0 142.25,-20.75"/>
<text xml:space="preserve" text-anchor="middle" x="103.88" y="-7.25" font-family="Helvetica,sans-Serif" font-size="10.00">utf8_graph.c</text>
</a>
</g>
</g>
<!-- Node5&#45;&gt;Node7 -->
<g id="edge7_Node000005_Node000007" class="edge">
<title>Node5&#45;&gt;Node7</title>
<g id="a_edge7_Node000005_Node000007"><a xlink:title=" ">
<path fill="none" stroke="#63b8ff" d="M78.37,-47.17C84.64,-38.38 91.82,-28.3 96.96,-21.08"/>
<polygon fill="#63b8ff" stroke="#63b8ff" points="75.68,-44.93 72.73,-55.1 81.38,-48.99 75.68,-44.93"/>
</a>
</g>
</g>
<!-- Node8&#45;&gt;Node3 -->
<g id="edge9_Node000008_Node000003" class="edge">
<title>Node8&#45;&gt;Node3</title>
<g id="a_edge9_Node000008_Node000003"><a xlink:title=" ">
<path fill="none" stroke="#63b8ff" d="M75.64,-219.11C65.42,-209.94 53.25,-199.01 44.69,-191.33"/>
<polygon fill="#63b8ff" stroke="#63b8ff" points="73.06,-221.5 82.84,-225.58 77.74,-216.29 73.06,-221.5"/>
</a>
</g>
</g>
<!-- Node8&#45;&gt;Node5 -->
<g id="edge10_Node000008_Node000005" class="edge">
<title>Node8&#45;&gt;Node5</title>
<g id="a_edge10_Node000008_Node000005"><a xlink:title=" ">
<path fill="none" stroke="#63b8ff" d="M92.56,-215.64C89.66,-191.12 84.17,-149.11 76.88,-113.5 74.32,-101.05 70.43,-86.92 67.77,-77.79"/>
<polygon fill="#63b8ff" stroke="#63b8ff" points="89.05,-215.71 93.67,-225.25 96,-214.91 89.05,-215.71"/>
</a>
</g>
</g>
</g>
</svg>
